<svg width="300" height="300" viewBox="0 0 300 300" fill="none" xmlns="http://www.w3.org/2000/svg">
<path d="M113.029 59.3162L117.118 56.816C117.366 56.6734 117.59 56.6745 117.757 56.7851V56.7863C117.768 56.7922 117.779 56.797 117.789 56.8041L121.924 59.2627C122.023 59.3209 122.056 59.4482 121.999 59.548L118.088 66.3982C118.07 66.4303 118.06 66.466 118.06 66.5029V73.8441C118.06 74.5384 117.638 75.3445 117.118 75.6441L120.804 73.6551C120.772 73.6741 120.745 73.7014 120.727 73.7335L116.832 80.5541C116.774 80.6551 116.643 80.6896 116.543 80.6301L112.382 78.1704C112.2 78.0456 112.088 77.79 112.088 77.4321V61.1173C112.088 60.423 112.51 59.6158 113.029 59.3162Z" fill="white"/>
<path d="M104.926 83.6023L109.014 81.1033C109.263 80.9606 109.486 80.9606 109.654 81.0723C109.665 81.0795 109.675 81.0831 109.686 81.0914L113.821 83.55C113.92 83.6082 113.953 83.7354 113.897 83.8341L109.986 90.6843C109.967 90.7164 109.957 90.7521 109.957 90.789V98.1302C109.957 98.8245 109.535 99.6305 109.014 99.9313L112.701 97.9424C112.669 97.9614 112.642 97.9875 112.624 98.0208L108.729 104.84C108.671 104.942 108.541 104.977 108.44 104.917L104.279 102.458C104.098 102.333 103.984 102.077 103.984 101.718V85.4034C103.984 84.7091 104.406 83.903 104.926 83.6023Z" fill="white"/>
<path d="M107.776 99.9385L108.2 99.2335L104.486 96.9972L104.062 97.7022L107.776 99.9385Z" fill="#C3E4FF"/>
<path d="M128.174 218.577L128.474 218.037L120.349 213.543L120.049 214.083L128.174 218.577Z" fill="black"/>
<path d="M126.492 219.473L126.792 218.933L118.667 214.439L118.367 214.979L126.492 219.473Z" fill="black"/>
<path d="M124.967 220.43L125.265 219.889L117.14 215.395L116.842 215.935L124.967 220.43Z" fill="black"/>
<path d="M123.25 221.307L123.549 220.768L115.425 216.273L115.125 216.813L123.25 221.307Z" fill="black"/>
<path d="M121.835 222.293L122.135 221.753L114.01 217.259L113.71 217.799L121.835 222.293Z" fill="black"/>
<path d="M120.153 223.191L120.452 222.65L112.328 218.156L112.028 218.695L120.153 223.191Z" fill="black"/>
<path d="M118.626 224.146L118.926 223.605L110.801 219.112L110.502 219.652L118.626 224.146Z" fill="black"/>
<path d="M145.666 206.408L145.964 205.868L140.857 203.043L140.557 203.584L145.666 206.408Z" fill="black"/>
<path d="M145.115 207.933L145.415 207.392L138.312 203.462L138.012 204.002L145.115 207.933Z" fill="black"/>
<path d="M144.139 209.192L144.439 208.652L136.314 204.158L136.015 204.698L144.139 209.192Z" fill="black"/>
<path d="M142.424 210.07L142.722 209.529L134.598 205.035L134.299 205.576L142.424 210.07Z" fill="black"/>
<path d="M140.897 211.026L141.197 210.486L133.072 205.991L132.773 206.532L140.897 211.026Z" fill="black"/>
<path d="M139.187 211.92L139.486 211.38L131.362 206.886L131.062 207.426L139.187 211.92Z" fill="black"/>
<path d="M137.66 212.876L137.958 212.336L129.834 207.842L129.535 208.382L137.66 212.876Z" fill="black"/>
<path d="M135.945 213.755L136.244 213.215L128.119 208.72L127.82 209.261L135.945 213.755Z" fill="black"/>
<path d="M134.53 214.74L134.828 214.199L126.704 209.705L126.405 210.245L134.53 214.74Z" fill="black"/>
<path d="M132.848 215.636L133.146 215.096L125.021 210.602L124.723 211.143L132.848 215.636Z" fill="black"/>
<path d="M131.32 216.592L131.619 216.051L123.495 211.557L123.195 212.098L131.32 216.592Z" fill="black"/>
<path d="M129.606 217.471L129.904 216.931L121.779 212.436L121.481 212.976L129.606 217.471Z" fill="black"/>
<path d="M168.656 193.458L168.956 192.917L160.831 188.423L160.531 188.963L168.656 193.458Z" fill="black"/>
<path d="M166.975 194.355L167.274 193.815L159.149 189.32L158.849 189.86L166.975 194.355Z" fill="black"/>
<path d="M165.447 195.31L165.747 194.771L157.622 190.276L157.323 190.817L165.447 195.31Z" fill="black"/>
<path d="M163.732 196.189L164.031 195.648L155.907 191.154L155.607 191.695L163.732 196.189Z" fill="black"/>
<path d="M162.317 197.173L162.617 196.634L154.492 192.14L154.192 192.679L162.317 197.173Z" fill="black"/>
<path d="M160.635 198.071L160.934 197.53L152.81 193.036L152.51 193.576L160.635 198.071Z" fill="black"/>
<path d="M159.108 199.027L159.407 198.487L151.282 193.992L150.984 194.533L159.108 199.027Z" fill="black"/>
<path d="M157.393 199.905L157.693 199.364L149.568 194.871L149.268 195.411L157.393 199.905Z" fill="black"/>
<path d="M155.865 200.861L156.165 200.321L148.04 195.826L147.741 196.367L155.865 200.861Z" fill="black"/>
<path d="M154.156 201.755L154.454 201.215L146.329 196.72L146.031 197.26L154.156 201.755Z" fill="black"/>
<path d="M152.629 202.712L152.929 202.171L144.804 197.676L144.504 198.217L152.629 202.712Z" fill="black"/>
<path d="M150.914 203.59L151.213 203.05L143.088 198.555L142.789 199.096L150.914 203.59Z" fill="black"/>
<path d="M148.567 204.059L148.866 203.52L142.367 199.924L142.067 200.464L148.567 204.059Z" fill="black"/>
<path d="M146.027 204.573L146.333 204.036L142.374 201.789L142.068 202.326L146.027 204.573Z" fill="black"/>
<path d="M189.43 181.436L189.73 180.895L181.605 176.402L181.306 176.941L189.43 181.436Z" fill="black"/>
<path d="M188.016 182.421L188.315 181.881L180.191 177.387L179.891 177.927L188.016 182.421Z" fill="black"/>
<path d="M186.332 183.318L186.632 182.777L178.507 178.284L178.208 178.823L186.332 183.318Z" fill="black"/>
<path d="M184.807 184.274L185.105 183.734L176.981 179.239L176.682 179.78L184.807 184.274Z" fill="black"/>
<path d="M183.09 185.153L183.39 184.612L175.265 180.118L174.965 180.658L183.09 185.153Z" fill="black"/>
<path d="M181.565 186.109L181.863 185.568L173.739 181.074L173.439 181.615L181.565 186.109Z" fill="black"/>
<path d="M179.854 187.003L180.152 186.462L172.028 181.968L171.729 182.507L179.854 187.003Z" fill="black"/>
<path d="M178.328 187.958L178.627 187.419L170.502 182.924L170.203 183.465L178.328 187.958Z" fill="black"/>
<path d="M176.612 188.837L176.91 188.296L168.786 183.802L168.487 184.343L176.612 188.837Z" fill="black"/>
<path d="M175.196 189.823L175.496 189.282L167.371 184.788L167.071 185.328L175.196 189.823Z" fill="black"/>
<path d="M173.514 190.719L173.813 190.178L165.689 185.684L165.389 186.225L173.514 190.719Z" fill="black"/>
<path d="M171.989 191.675L172.287 191.134L164.162 186.64L163.864 187.181L171.989 191.675Z" fill="black"/>
<path d="M170.272 192.553L170.572 192.013L162.447 187.519L162.147 188.058L170.272 192.553Z" fill="black"/>
<path d="M168.747 193.509L169.045 192.97L160.92 188.474L160.622 189.015L168.747 193.509Z" fill="black"/>
<path d="M211.845 166.536L212.145 165.997L207.038 163.171L206.739 163.712L211.845 166.536Z" fill="black"/>
<path d="M190.848 183.023L185.151 183.141C185.051 183.144 184.951 183.119 184.864 183.069L163.055 170.477C161.718 169.705 159.693 169.62 158.535 170.29L109.067 198.851C109.035 198.869 109.001 198.884 108.967 198.895L92.545 204.414C92.3215 204.488 92.1717 204.698 92.1717 204.934L92.1741 209.061C92.0326 209.641 92.3976 210.29 93.2465 210.781L120.506 226.519C121.843 227.291 123.867 227.375 125.026 226.706L190.639 188.824C191.169 188.518 191.412 188.107 191.408 187.679V183.573C191.408 183.265 191.155 183.018 190.848 183.023Z" fill="black"/>
<path d="M162.794 170.929L184.602 183.519C184.77 183.617 184.933 183.693 185.161 183.663L190.858 183.545L190.848 183.023L190.886 187.684C190.889 188.01 190.612 188.237 190.378 188.372L124.764 226.254C123.771 226.83 121.94 226.744 120.768 226.066L93.5081 210.329C92.9101 209.983 92.5938 209.545 92.6806 209.182L92.7115 204.907L109.136 199.389C109.201 199.367 109.266 199.337 109.327 199.303L158.796 170.741C159.24 170.486 159.849 170.36 160.492 170.36C161.292 170.36 162.145 170.553 162.794 170.929ZM125.286 227.158L190.9 189.277C191.572 188.888 191.937 188.32 191.929 187.679V183.573C191.929 183.283 191.815 183.012 191.608 182.808C191.4 182.605 191.158 182.467 190.837 182.503L185.126 182.617L163.317 170.026C161.81 169.157 159.597 169.076 158.274 169.838L108.8 198.4L92.3787 203.918C91.9423 204.065 91.6487 204.473 91.6487 204.934L91.6511 209.005C91.4894 209.824 91.9827 210.653 92.9861 211.233L120.246 226.97C121.06 227.441 122.081 227.681 123.059 227.681C123.885 227.681 124.68 227.508 125.286 227.158Z" fill="black"/>
<path d="M190.639 184.303L125.026 222.183C123.867 222.853 121.843 222.768 120.506 221.997L93.2464 206.259C91.909 205.486 91.7639 204.317 92.9219 203.649L158.535 165.767C159.693 165.099 161.718 165.182 163.055 165.955L190.315 181.693C191.652 182.465 191.797 183.633 190.639 184.303Z" fill="white"/>
<path d="M162.794 166.406L190.053 182.145C190.584 182.449 190.899 182.833 190.899 183.169C190.899 183.484 190.616 183.713 190.378 183.851L124.764 221.732C123.769 222.306 121.937 222.222 120.768 221.545L93.5081 205.807C92.9778 205.501 92.6616 205.117 92.6616 204.782C92.6616 204.468 92.9457 204.238 93.1835 204.101L158.796 166.219C159.24 165.963 159.849 165.839 160.492 165.839C161.292 165.839 162.145 166.031 162.794 166.406ZM125.286 222.635L190.9 184.755C191.573 184.366 191.944 183.803 191.944 183.169C191.943 182.446 191.444 181.742 190.575 181.241L163.317 165.502C161.813 164.635 159.598 164.552 158.274 165.315L92.6616 203.197C91.9887 203.586 91.6189 204.148 91.6189 204.782C91.6189 205.506 92.1171 206.208 92.9861 206.709L120.246 222.448C121.06 222.918 122.082 223.158 123.059 223.158C123.885 223.158 124.68 222.986 125.286 222.635Z" fill="black"/>
<path d="M123.45 226.837H122.647V222.948H123.45V226.837Z" fill="#C3E4FF"/>
<path d="M95.5291 211.339H94.7266V207.45H95.5291V211.339Z" fill="#C3E4FF"/>
<path d="M188.875 189.569H188.072V185.681H188.875V189.569Z" fill="#C3E4FF"/>
<path d="M218.454 34.2739C218.507 34.2025 218.485 34.1027 218.408 34.0599L213.542 31.3588C213.281 31.1567 212.92 31.1448 212.518 31.3766L65.4448 116.29C64.6507 116.748 64.0075 117.978 64.0075 119.036V231.577C64.0075 232.106 64.168 232.492 64.4284 232.688L69.5572 235.532L74.6657 229.379L72.6565 228.499L212.518 147.75C213.312 147.292 213.957 146.062 213.957 145.004V40.3728L218.454 34.2739Z" fill="white"/>
<path d="M213.29 31.8153L217.78 34.3084L213.435 40.2004V145.004C213.435 145.879 212.896 146.93 212.258 147.298L71.5021 228.564L73.8215 229.578L69.4322 234.866L64.7433 232.272C64.6399 232.194 64.5294 231.969 64.5294 231.576V119.036C64.5294 118.161 65.0679 117.11 65.7063 116.742L212.778 31.8284C212.859 31.782 212.958 31.738 213.064 31.738C213.136 31.738 213.214 31.7595 213.29 31.8153ZM75.5097 229.179L73.8108 228.436L212.78 148.202C213.732 147.651 214.479 146.247 214.479 145.004V40.544L218.873 34.5854C218.987 34.4308 219.031 34.2347 218.989 34.0468C218.95 33.859 218.83 33.6973 218.661 33.6034L213.863 30.9463C213.417 30.6015 212.833 30.5932 212.258 30.9249L65.1832 115.838C64.231 116.388 63.4844 117.793 63.4844 119.036V231.576C63.4844 232.254 63.7079 232.798 64.1751 233.145L69.6831 236.198L75.5097 229.179Z" fill="black"/>
<path d="M217.659 150.603L70.5855 235.517C69.7914 235.974 69.1482 235.488 69.1482 234.429V121.89C69.1482 120.832 69.7914 119.601 70.5855 119.143L217.659 34.2299C218.453 33.771 219.096 34.2585 219.096 35.3165V147.857C219.096 148.915 218.453 150.144 217.659 150.603Z" fill="black"/>
<path d="M218.338 34.6056C218.447 34.6686 218.574 34.8933 218.574 35.3166V147.857C218.574 148.732 218.036 149.783 217.398 150.151L70.3239 235.065C70.2407 235.112 70.0314 235.217 69.9054 235.14C69.7961 235.077 69.67 234.853 69.67 234.43V121.89C69.67 121.015 70.2086 119.964 70.8458 119.595L217.92 34.6817C217.982 34.646 218.113 34.5795 218.229 34.5795C218.269 34.5795 218.306 34.5878 218.338 34.6056ZM70.8458 235.967L217.92 151.055C218.871 150.505 219.618 149.099 219.618 147.857V35.3166C219.618 34.5688 219.341 33.9803 218.86 33.7021C218.429 33.4548 217.912 33.481 217.398 33.7782L70.3239 118.692C69.3716 119.241 68.625 120.646 68.625 121.89V234.43C68.625 235.178 68.9021 235.766 69.3836 236.043C69.5773 236.156 69.7913 236.212 70.0136 236.212C70.2823 236.212 70.5653 236.131 70.8458 235.967Z" fill="black"/>
<path d="M217.445 148.502L70.7994 233.169C70.5664 233.303 70.3774 233.16 70.3774 232.849V121.34C70.3774 121.029 70.5664 120.669 70.7994 120.533L217.445 35.8681C217.678 35.7326 217.867 35.8764 217.867 36.1867V147.696C217.867 148.007 217.678 148.368 217.445 148.502Z" fill="#C3E4FF"/>
<path d="M217.345 147.696C217.345 147.844 217.239 148.016 217.184 148.051L70.8994 232.509V121.34C70.8994 121.193 71.0052 121.019 71.061 120.986L217.345 36.528V147.696ZM71.061 233.62L217.706 148.954C218.102 148.726 218.389 148.196 218.389 147.696V36.1868C218.389 35.8325 218.24 35.5424 217.981 35.3938C217.738 35.2535 217.447 35.2642 217.184 35.4164L70.5391 120.081C70.142 120.31 69.8544 120.839 69.8544 121.34V232.849C69.8544 233.203 70.003 233.493 70.2609 233.642C70.3751 233.708 70.5011 233.742 70.6307 233.742C70.7733 233.742 70.9196 233.701 71.061 233.62Z" fill="black"/>
<path d="M219.096 147.989V141.552L69.1482 228.125V234.562C69.1482 235.548 69.8389 235.947 70.6925 235.455L217.552 150.665C218.405 150.173 219.096 148.974 219.096 147.989Z" fill="black"/>
<path d="M218.574 142.456V147.989C218.574 148.792 217.987 149.811 217.29 150.213L70.4321 235.003C70.1944 235.14 69.9792 235.179 69.8615 235.111C69.7414 235.042 69.6701 234.837 69.6701 234.563V228.426L218.574 142.456ZM70.9541 235.905L217.813 151.117C218.825 150.532 219.619 149.157 219.619 147.989V140.648L68.8866 227.674L68.625 227.823V234.563C68.625 235.224 68.8854 235.753 69.3384 236.015C69.5381 236.129 69.7616 236.186 69.9994 236.186C70.3049 236.186 70.6319 236.092 70.9541 235.905Z" fill="black"/>
<path d="M134.828 194.778L134.428 194.084L153.416 183.12L153.817 183.815L134.828 194.778Z" fill="#C3E4FF"/>
<path d="M68.7772 120.86L63.7376 117.836L64.2762 116.94L69.3146 119.966L68.7772 120.86Z" fill="black"/>
<path d="M209.063 39.493L204.025 36.4686L204.562 35.5745L209.601 38.599L209.063 39.493Z" fill="black"/>
<path d="M68.7772 227.492L63.7376 224.467L64.2762 223.571L69.3146 226.597L68.7772 227.492Z" fill="black"/>
<path d="M104.39 217.027L103.988 216.333L107.173 214.48L107.576 215.174L104.39 217.027Z" fill="#C3E4FF"/>
<path d="M122.78 220.234C122.239 220.234 121.698 220.086 121.219 219.791L117.923 217.912L118.367 217.027L121.767 218.902C122.369 219.274 123.125 219.287 123.742 218.934L180.24 186.71L180.759 187.616L124.259 219.84C123.8 220.103 123.29 220.234 122.78 220.234Z" fill="black"/>
<path d="M182.382 186.679L181.873 185.769L186.06 183.434C186.224 183.343 186.243 183.188 186.244 183.126C186.244 183.063 186.228 182.908 186.067 182.813L180.236 179.397L180.764 178.497L186.594 181.913C187.034 182.169 187.293 182.628 187.287 183.136C187.282 183.645 187.013 184.098 186.569 184.345L182.382 186.679Z" fill="black"/>
<path d="M68.4978 223.616L63.4594 220.592L63.9979 219.696L69.0352 222.721L68.4978 223.616Z" fill="black"/>
<path d="M205.815 41.3262L200.777 38.3017L201.315 37.4077L206.353 40.4321L205.815 41.3262Z" fill="black"/>
<path d="M68.5145 126.217L63.4761 123.193L64.0146 122.299L69.0519 125.323L68.5145 126.217Z" fill="black"/>
<path d="M91.777 200.846L196.636 140.306C197.157 140.006 197.579 139.2 197.579 138.505V63.5283C197.579 62.834 197.157 62.5142 196.636 62.815L91.777 123.356C91.2575 123.656 90.8354 124.462 90.8354 125.157V200.134C90.8354 200.828 91.2575 201.147 91.777 200.846Z" fill="#C3E4FF"/>
<path d="M197.009 63.1134C197.025 63.1134 197.038 63.117 197.047 63.1229C197.096 63.1503 197.168 63.2811 197.168 63.5284V138.505C197.168 139.047 196.823 139.723 196.43 139.95L91.5714 200.49C91.4834 200.54 91.4025 200.557 91.3668 200.54C91.3181 200.512 91.2468 200.381 91.2468 200.134V125.157C91.2468 124.613 91.5904 123.939 91.9827 123.712L196.843 63.1717C196.907 63.1337 196.968 63.1134 197.009 63.1134ZM91.4013 201.37C91.5904 201.37 91.7901 201.314 91.9827 201.202L196.843 140.663C197.486 140.29 197.99 139.342 197.99 138.505V63.5284C197.99 63.0124 197.796 62.6034 197.459 62.4096C197.16 62.236 196.785 62.2539 196.43 62.4584L91.5714 122.999C90.927 123.371 90.4229 124.319 90.4229 125.157V200.134C90.4229 200.65 90.6167 201.057 90.9555 201.254C91.091 201.331 91.2432 201.37 91.4013 201.37Z" fill="#4B9AC2"/>
<path d="M201.777 137.338L205.244 135.336C205.764 135.036 206.186 134.229 206.186 133.536V58.5589C206.186 57.8646 205.764 57.5448 205.244 57.8456L201.777 59.8476C201.256 60.1484 200.834 60.9545 200.834 61.6488V136.626C200.834 137.32 201.256 137.639 201.777 137.338Z" fill="#C3E4FF"/>
<path d="M201.571 136.982C201.482 137.032 201.402 137.051 201.365 137.031C201.325 137.007 201.245 136.892 201.245 136.626V61.6487C201.245 61.1066 201.59 60.4313 201.982 60.2042L205.449 58.2022C205.538 58.151 205.619 58.132 205.656 58.1534C205.696 58.176 205.775 58.2925 205.775 58.5588V133.536C205.775 134.078 205.431 134.753 205.038 134.979L201.571 136.982ZM201.401 137.862C201.59 137.862 201.79 137.806 201.982 137.694L205.449 135.692C206.093 135.321 206.599 134.374 206.599 133.536V58.5588C206.599 58.0429 206.405 57.6351 206.067 57.4401C205.768 57.2665 205.392 57.2844 205.038 57.4888L201.571 59.4909C200.927 59.863 200.423 60.8105 200.423 61.6487V136.626C200.423 137.142 200.616 137.549 200.954 137.744C201.091 137.823 201.243 137.862 201.401 137.862Z" fill="#4B9AC2"/>
<path d="M79.5341 207.915L86.5282 203.877C87.0477 203.577 87.4697 202.771 87.4697 202.076V127.099C87.4697 126.405 87.0477 126.086 86.5282 126.387L79.5341 130.425C79.0133 130.725 78.5913 131.531 78.5913 132.226V207.203C78.5913 207.897 79.0133 208.216 79.5341 207.915Z" fill="#C3E4FF"/>
<path d="M79.3284 207.559C79.2404 207.609 79.1595 207.629 79.1227 207.609C79.0751 207.581 79.0038 207.45 79.0038 207.203V132.226C79.0038 131.682 79.3474 131.007 79.7397 130.781L86.7326 126.744C86.8217 126.693 86.9014 126.672 86.9395 126.694C86.9799 126.718 87.0584 126.833 87.0584 127.099V202.076C87.0584 202.62 86.7148 203.294 86.3225 203.52L79.3284 207.559ZM79.1572 208.439C79.3474 208.439 79.5471 208.383 79.7397 208.271L86.7326 204.233C87.3769 203.862 87.8822 202.916 87.8822 202.076V127.099C87.8822 126.583 87.6884 126.176 87.3508 125.981C87.05 125.807 86.6755 125.826 86.3212 126.031L79.3284 130.068C78.684 130.439 78.1799 131.386 78.1799 132.226V207.203C78.1799 207.719 78.3737 208.126 78.7113 208.321C78.8469 208.4 78.999 208.439 79.1572 208.439Z" fill="#4B9AC2"/>
<path d="M91.777 129.863L196.636 69.3228C197.157 69.0232 197.579 68.216 197.579 67.5217V63.5283C197.579 62.834 197.157 62.5142 196.636 62.815L91.777 123.356C91.2575 123.656 90.8354 124.462 90.8354 125.157V129.151C90.8354 129.846 91.2575 130.164 91.777 129.863Z" fill="#C3E4FF"/>
<path d="M197.009 63.1134C197.025 63.1134 197.038 63.1169 197.047 63.1229C197.096 63.1502 197.168 63.281 197.168 63.5283V67.5217C197.168 68.065 196.823 68.7403 196.43 68.9662L91.5714 129.507C91.4834 129.558 91.4025 129.577 91.3668 129.557C91.3181 129.529 91.2468 129.397 91.2468 129.151V125.157C91.2468 124.613 91.5904 123.939 91.9827 123.712L196.843 63.1717C196.907 63.1336 196.968 63.1134 197.009 63.1134ZM91.4013 130.388C91.5915 130.388 91.7901 130.332 91.9827 130.22L196.843 69.6795C197.486 69.3074 197.99 68.3598 197.99 67.5217V63.5283C197.99 63.0123 197.796 62.6034 197.459 62.4096C197.159 62.236 196.785 62.2538 196.43 62.4583L91.5714 122.999C90.927 123.371 90.4229 124.319 90.4229 125.157V129.151C90.4229 129.667 90.6167 130.075 90.9543 130.27C91.0911 130.348 91.2432 130.388 91.4013 130.388Z" fill="#4B9AC2"/>
<path d="M101.281 121.123C101.281 121.836 101.781 122.125 102.398 121.768C103.017 121.412 103.517 120.545 103.517 119.832C103.517 119.118 103.017 118.83 102.398 119.186C101.781 119.543 101.281 120.41 101.281 121.123Z" fill="#4B9AC2"/>
<path d="M97.5882 123.256C97.5882 123.968 98.0887 124.257 98.7057 123.901C99.3239 123.545 99.8245 122.677 99.8245 121.963C99.8245 121.251 99.3239 120.961 98.7057 121.318C98.0887 121.675 97.5882 122.542 97.5882 123.256Z" fill="#4B9AC2"/>
<path d="M192.623 68.3872C192.623 69.1005 193.123 69.3894 193.74 69.0327C194.358 68.6761 194.859 67.8082 194.859 67.0961C194.859 66.3828 194.358 66.0938 193.74 66.4505C193.123 66.806 192.623 67.6738 192.623 68.3872Z" fill="#4B9AC2"/>
<path d="M188.93 70.5189C188.93 71.2322 189.43 71.5211 190.047 71.1644C190.666 70.8078 191.166 69.9411 191.166 69.2278C191.166 68.5145 190.666 68.2256 190.047 68.5822C189.43 68.9389 188.93 69.8056 188.93 70.5189Z" fill="#4B9AC2"/>
<path d="M93.8956 125.387C93.8956 126.101 94.3961 126.39 95.0131 126.033C95.6313 125.676 96.1318 124.808 96.1318 124.096C96.1318 123.383 95.6313 123.094 95.0131 123.451C94.3961 123.806 93.8956 124.674 93.8956 125.387Z" fill="#4B9AC2"/>
<path d="M174.762 108.208L191.68 98.4405C192.2 98.1397 192.622 97.3337 192.622 96.6406V78.508C192.622 77.8137 192.2 77.4951 191.68 77.7947L174.762 87.5624C174.243 87.8631 173.821 88.6692 173.821 89.3623V107.495C173.821 108.189 174.243 108.508 174.762 108.208Z" fill="#C3E4FF"/>
<path d="M174.556 107.852C174.469 107.901 174.389 107.919 174.352 107.901C174.31 107.877 174.232 107.761 174.232 107.495V89.3623C174.232 88.8202 174.575 88.1449 174.968 87.919L191.885 78.1513C191.973 78.1014 192.054 78.0812 192.091 78.1026C192.131 78.1264 192.211 78.2417 192.211 78.508V96.6406C192.211 97.1827 191.866 97.858 191.473 98.0838L174.556 107.852ZM174.386 108.731C174.577 108.731 174.775 108.675 174.968 108.565L191.885 98.7972C192.529 98.4262 193.034 97.4787 193.034 96.6406V78.508C193.034 77.992 192.84 77.5842 192.502 77.3893C192.202 77.2157 191.828 77.2347 191.473 77.438L174.556 87.2057C173.912 87.5778 173.408 88.5254 173.408 89.3623V107.495C173.408 108.011 173.602 108.419 173.939 108.614C174.076 108.693 174.228 108.731 174.386 108.731Z" fill="#4B9AC2"/>
<path d="M96.4421 167.115L106.654 161.22C107.174 160.919 107.596 160.113 107.596 159.419V127.597C107.596 126.903 107.174 126.584 106.654 126.885L96.4421 132.781C95.9214 133.082 95.4994 133.888 95.4994 134.582V166.403C95.4994 167.096 95.9214 167.416 96.4421 167.115Z" fill="#C3E4FF"/>
<path d="M96.2364 166.759C96.1472 166.81 96.0676 166.828 96.0307 166.809C95.9832 166.78 95.9118 166.649 95.9118 166.402V134.582C95.9118 134.039 96.2554 133.363 96.6477 133.138L106.86 127.242C106.949 127.19 107.03 127.169 107.065 127.192C107.113 127.219 107.185 127.35 107.185 127.597V159.419C107.185 159.961 106.841 160.636 106.449 160.863L96.2364 166.759ZM96.0652 167.64C96.2554 167.64 96.4551 167.584 96.6477 167.472L106.86 161.576C107.505 161.204 108.009 160.257 108.009 159.419V127.597C108.009 127.082 107.815 126.674 107.476 126.479C107.178 126.306 106.802 126.324 106.449 126.529L96.2364 132.424C95.592 132.795 95.088 133.744 95.088 134.582V166.402C95.088 166.918 95.2817 167.327 95.6194 167.522C95.7549 167.6 95.9071 167.64 96.0652 167.64Z" fill="#4B9AC2"/>
<path d="M96.4421 174.071L106.654 168.176C107.174 167.875 107.596 167.069 107.596 166.375V165.411C107.596 164.716 107.174 164.398 106.654 164.697L96.4421 170.594C95.9214 170.895 95.4994 171.701 95.4994 172.395V173.359C95.4994 174.054 95.9214 174.372 96.4421 174.071Z" fill="#C3E4FF"/>
<path d="M102.14 167.779L106.86 165.055L106.662 164.692L106.509 164.312L106.436 164.355L101.728 167.065L102.14 167.779ZM103.739 170.335L106.86 168.532C107.419 168.209 107.883 167.449 107.986 166.686L107.17 166.576C107.101 167.078 106.784 167.625 106.449 167.82L103.328 169.621L103.739 170.335ZM95.9261 172.187C95.9986 171.678 96.3089 171.146 96.6477 170.951L99.7769 169.145L99.3655 168.431L96.2364 170.237C95.68 170.557 95.2175 171.312 95.1117 172.073L95.9261 172.187ZM96.6347 174.436L96.4266 174.081L96.6466 174.429L101.375 171.7L100.963 170.986L96.2364 173.715L96.6347 174.436Z" fill="#4B9AC2"/>
<path d="M96.4421 192.624L106.654 186.727C107.174 186.426 107.596 185.62 107.596 184.926V183.962C107.596 183.267 107.174 182.949 106.654 183.248L96.4421 189.145C95.9214 189.446 95.4994 190.252 95.4994 190.946V191.91C95.4994 192.605 95.9214 192.923 96.4421 192.624Z" fill="#C3E4FF"/>
<path d="M96.2364 192.267C96.1472 192.318 96.0676 192.337 96.0307 192.316C95.9832 192.288 95.9118 192.158 95.9118 191.91V190.946C95.9118 190.403 96.2554 189.728 96.6477 189.502L106.86 183.605C106.949 183.554 107.03 183.536 107.065 183.555C107.106 183.58 107.185 183.695 107.185 183.962V184.926C107.185 185.469 106.841 186.144 106.449 186.37L96.2364 192.267ZM96.0652 193.147C96.2554 193.147 96.454 193.091 96.6466 192.98L96.6477 192.979L106.86 187.084C107.505 186.711 108.009 185.764 108.009 184.926V183.962C108.009 183.446 107.815 183.038 107.477 182.843C107.176 182.669 106.802 182.688 106.449 182.892L96.2364 188.788C95.592 189.159 95.088 190.107 95.088 190.946V191.91C95.088 192.426 95.2818 192.834 95.6182 193.029C95.7549 193.109 95.9071 193.147 96.0652 193.147Z" fill="#4B9AC2"/>
<path d="M96.4421 185.966L106.654 180.069C107.174 179.77 107.596 178.962 107.596 178.269V172.385C107.596 171.691 107.174 171.373 106.654 171.673L96.4421 177.569C95.9214 177.87 95.4994 178.676 95.4994 179.37V185.253C95.4994 185.947 95.9214 186.265 96.4421 185.966Z" fill="#C3E4FF"/>
<path d="M102.769 174.391L106.86 172.03L106.479 171.3L102.358 173.678L102.769 174.391ZM96.6407 177.929L100.72 175.574L100.308 174.862L96.2364 177.212L96.4159 177.584L96.6407 177.929ZM107.185 177.976H108.009V173.244H107.185V177.976ZM102.795 182.774L106.86 180.426L106.688 180.05L106.462 179.705L102.384 182.06L102.795 182.774ZM95.088 184.386H95.9118V179.654H95.088V184.386ZM96.6347 186.33L100.746 183.957L100.334 183.243L96.2364 185.609L96.6347 186.33Z" fill="#4B9AC2"/>
<path d="M174.762 147.404L191.68 137.637C192.2 137.337 192.622 136.531 192.622 135.836V103.044C192.622 102.349 192.2 102.03 191.68 102.33L174.762 112.097C174.243 112.398 173.821 113.204 173.821 113.898V146.692C173.821 147.386 174.243 147.705 174.762 147.404Z" fill="#C3E4FF"/>
<path d="M192.211 105.266H193.034V103.044C193.034 101.853 192.158 101.578 191.474 101.974L190.405 102.591L190.817 103.304L191.885 102.687C191.972 102.637 192.028 102.629 192.054 102.629C192.143 102.629 192.211 102.807 192.211 103.044V105.266ZM184.357 107.035L188.664 104.548L188.252 103.834L183.945 106.321L184.357 107.035ZM177.897 110.764L182.203 108.277L181.792 107.564L177.485 110.051L177.897 110.764ZM192.211 112.726H193.034V107.753H192.211V112.726ZM173.408 115.866H174.232V113.898C174.232 113.356 174.575 112.681 174.968 112.455L175.743 112.007L175.332 111.293L174.556 111.742C173.912 112.114 173.408 113.061 173.408 113.898V115.866ZM192.211 120.185H193.034V115.212H192.211V120.185ZM173.408 123.325H174.232V118.352H173.408V123.325ZM192.211 127.645H193.034V122.672H192.211V127.645ZM173.408 130.785H174.232V125.812H173.408V130.785ZM192.211 135.104H193.034V130.131H192.211V135.104ZM173.408 138.244H174.232V133.271H173.408V138.244ZM187.888 140.302L191.885 137.994C192.013 137.92 192.136 137.824 192.252 137.709L191.669 137.127C191.605 137.192 191.539 137.244 191.474 137.281L187.477 139.588L187.888 140.302ZM181.428 144.031L185.735 141.545L185.324 140.832L181.017 143.318L181.428 144.031ZM173.408 145.704H174.232V140.731H173.408V145.704ZM174.95 147.771L174.955 147.769L179.275 145.275L178.864 144.561L174.556 147.048L174.95 147.771Z" fill="#4B9AC2"/>
<path d="M111.893 183.702L128.809 173.936C129.33 173.635 129.752 172.829 129.752 172.135V114.806C129.752 114.112 129.33 113.794 128.809 114.093L111.893 123.861C111.372 124.162 110.95 124.968 110.95 125.662V182.99C110.95 183.685 111.372 184.003 111.893 183.702Z" fill="#C3E4FF"/>
<path d="M129.183 114.392C129.198 114.392 129.211 114.395 129.22 114.4C129.268 114.428 129.339 114.559 129.339 114.806V172.135C129.339 172.678 128.996 173.353 128.603 173.579L111.687 183.346C111.598 183.397 111.518 183.416 111.481 183.396C111.432 183.368 111.361 183.238 111.361 182.99V125.662C111.361 125.119 111.706 124.443 112.098 124.218L129.015 114.45C129.08 114.413 129.141 114.392 129.183 114.392ZM111.517 184.227C111.706 184.227 111.905 184.171 112.098 184.059L129.015 174.293C129.659 173.922 130.163 172.973 130.163 172.135V114.806C130.163 114.29 129.969 113.883 129.632 113.687C129.332 113.515 128.958 113.533 128.603 113.736L111.687 123.504C111.043 123.876 110.539 124.824 110.539 125.662V182.99C110.539 183.506 110.732 183.914 111.07 184.109C111.207 184.187 111.359 184.227 111.517 184.227Z" fill="#4B9AC2"/>
<path d="M133.951 165.207L136.194 163.912C136.715 163.612 137.137 162.806 137.137 162.111V110.542C137.137 109.848 136.715 109.529 136.194 109.83L133.951 111.126C133.43 111.425 133.008 112.232 133.008 112.926V164.495C133.008 165.189 133.43 165.508 133.951 165.207Z" fill="#C3E4FF"/>
<path d="M133.745 164.85C133.657 164.902 133.576 164.924 133.539 164.9C133.492 164.873 133.419 164.742 133.419 164.495V112.926C133.419 112.384 133.764 111.708 134.156 111.482L136.4 110.186C136.487 110.137 136.565 110.115 136.604 110.137C136.653 110.164 136.724 110.296 136.724 110.542V162.111C136.724 162.655 136.381 163.329 135.989 163.556L133.745 164.85ZM133.574 165.731C133.764 165.731 133.964 165.676 134.156 165.564L136.4 164.269C137.044 163.897 137.548 162.95 137.548 162.111V110.542C137.548 110.026 137.355 109.618 137.017 109.423C136.717 109.251 136.342 109.269 135.989 109.473L133.745 110.769C133.101 111.14 132.597 112.087 132.597 112.926V164.495C132.597 165.011 132.79 165.419 133.128 165.614C133.264 165.692 133.416 165.731 133.574 165.731Z" fill="#4B9AC2"/>
<path d="M133.885 171.005L136.26 169.635C136.745 169.354 137.137 168.604 137.137 167.958C137.137 167.313 136.745 167.015 136.26 167.295L133.885 168.667C133.4 168.946 133.008 169.696 133.008 170.342C133.008 170.989 133.4 171.285 133.885 171.005Z" fill="#C3E4FF"/>
<path d="M136.607 167.602C136.617 167.602 136.623 167.603 136.627 167.605C136.652 167.621 136.724 167.716 136.724 167.958C136.724 168.455 136.411 169.071 136.054 169.278L133.679 170.649C133.589 170.7 133.534 170.703 133.517 170.695C133.492 170.681 133.419 170.584 133.419 170.342C133.419 169.846 133.733 169.229 134.09 169.022L136.465 167.651C136.532 167.613 136.579 167.602 136.607 167.602ZM133.535 171.521C133.717 171.521 133.907 171.468 134.09 171.362L136.465 169.991C137.073 169.64 137.548 168.746 137.548 167.958C137.548 167.467 137.363 167.078 137.039 166.892C136.752 166.725 136.393 166.744 136.054 166.938L133.679 168.309C133.072 168.661 132.597 169.554 132.597 170.342C132.597 170.833 132.782 171.222 133.106 171.408C133.236 171.484 133.383 171.521 133.535 171.521Z" fill="#4B9AC2"/>
<path d="M141.464 142.093L169.654 125.819C170.174 125.518 170.596 124.712 170.596 124.018V91.2241C170.596 90.531 170.174 90.2112 169.654 90.5119L141.464 106.786C140.945 107.087 140.523 107.893 140.523 108.587V141.381C140.523 142.075 140.945 142.394 141.464 142.093Z" fill="#C3E4FF"/>
<path d="M170.185 93.3462H171.008V91.2241C171.008 90.034 170.131 89.7606 169.448 90.1553L168.408 90.7557L168.819 91.469L169.859 90.8686C169.946 90.8187 170.002 90.8104 170.028 90.8104C170.117 90.8104 170.185 90.9887 170.185 91.2241V93.3462ZM162.532 95.0986L166.723 92.6793L166.312 91.9659L162.121 94.3853L162.532 95.0986ZM156.246 98.7282L160.437 96.3089L160.025 95.5955L155.833 98.0149L156.246 98.7282ZM170.185 100.605H171.008V95.7655H170.185V100.605ZM149.959 102.358L154.15 99.9385L153.738 99.2252L149.547 101.644L149.959 102.358ZM143.672 105.987L147.863 103.568L147.452 102.855L143.261 105.274L143.672 105.987ZM170.185 107.865H171.008V103.025H170.185V107.865ZM140.11 111.424H140.934V108.587C140.933 108.076 141.237 107.446 141.611 107.181L141.136 106.509C140.541 106.929 140.11 107.804 140.11 108.587V111.424ZM170.185 115.124H171.008V110.284H170.185V115.124ZM140.11 118.683H140.934V113.843H140.11V118.683ZM170.185 122.383H171.008V117.543H170.185V122.383ZM140.11 125.943H140.934V121.103H140.11V125.943ZM166.818 127.931L169.859 126.176C170.261 125.943 170.625 125.478 170.832 124.93L170.061 124.638C169.921 125.008 169.686 125.324 169.448 125.462L166.406 127.218L166.818 127.931ZM160.531 131.561L164.722 129.142L164.311 128.428L160.119 130.848L160.531 131.561ZM140.11 133.202H140.934V128.362H140.11V133.202ZM154.243 135.191L158.434 132.771L158.023 132.058L153.832 134.477L154.243 135.191ZM147.957 138.82L152.149 136.401L151.736 135.688L147.545 138.107L147.957 138.82ZM140.11 140.461H140.934V135.621H140.11V140.461ZM141.658 142.457L141.676 142.446L145.862 140.031L145.449 139.317L141.259 141.737L141.658 142.457Z" fill="#4B9AC2"/>
<path d="M141.464 153.314L169.654 137.039C170.174 136.739 170.596 135.933 170.596 135.238V130.421C170.596 129.727 170.174 129.408 169.654 129.709L141.464 145.983C140.945 146.284 140.523 147.09 140.523 147.784V152.602C140.523 153.296 140.945 153.615 141.464 153.314Z" fill="#C3E4FF"/>
<path d="M141.259 152.957C141.171 153.008 141.091 153.026 141.054 153.007C141.013 152.983 140.934 152.868 140.934 152.602V147.784C140.934 147.241 141.278 146.567 141.671 146.34L169.859 130.065C169.948 130.013 170.028 129.994 170.065 130.016C170.112 130.043 170.185 130.174 170.185 130.421V135.238C170.185 135.78 169.84 136.456 169.448 136.683L141.259 152.957ZM141.09 153.838C141.279 153.838 141.477 153.782 141.671 153.67L169.859 137.396C170.504 137.024 171.008 136.076 171.008 135.238V130.421C171.008 129.905 170.814 129.497 170.475 129.302C170.177 129.13 169.802 129.148 169.448 129.352L141.259 145.627C140.616 145.999 140.11 146.946 140.11 147.784V152.602C140.11 153.118 140.304 153.525 140.642 153.72C140.778 153.799 140.931 153.838 141.09 153.838Z" fill="#4B9AC2"/>
<path d="M141.464 166.629L169.654 150.353C170.174 150.054 170.596 149.247 170.596 148.554V141.342C170.596 140.648 170.174 140.329 169.654 140.63L141.464 156.904C140.945 157.205 140.523 158.011 140.523 158.705V165.917C140.523 166.61 140.945 166.93 141.464 166.629Z" fill="#C3E4FF"/>
<path d="M141.259 166.272C141.171 166.324 141.091 166.34 141.054 166.322C141.013 166.299 140.934 166.182 140.934 165.917V158.705C140.934 158.163 141.278 157.488 141.671 157.261L169.859 140.986C169.948 140.935 170.028 140.916 170.065 140.936C170.105 140.96 170.185 141.076 170.185 141.342V148.552C170.185 149.096 169.84 149.771 169.448 149.998L141.259 166.272ZM141.09 167.153C141.279 167.153 141.477 167.097 141.671 166.986L169.859 150.71C170.504 150.338 171.008 149.39 171.008 148.552V141.342C171.008 140.826 170.814 140.418 170.476 140.223C170.175 140.051 169.802 140.069 169.448 140.273L141.259 156.547C140.616 156.92 140.11 157.868 140.11 158.705V165.917C140.11 166.432 140.304 166.839 140.642 167.034C140.778 167.114 140.931 167.153 141.09 167.153Z" fill="#4B9AC2"/>
<path d="M82.6191 136.601H83.443V131.66H82.6191V136.601ZM82.6191 144.011H83.443V139.07H82.6191V144.011ZM82.6191 151.421H83.443V146.481H82.6191V151.421ZM82.6191 158.833H83.443V153.892H82.6191V158.833ZM82.6191 166.243H83.443V161.303H82.6191V166.243ZM82.6191 173.654H83.443V168.713H82.6191V173.654ZM82.6191 181.064H83.443V176.123H82.6191V181.064ZM82.6191 188.474H83.443V183.535H82.6191V188.474ZM82.6191 195.886H83.443V190.945H82.6191V195.886ZM82.6191 202.797H83.443V198.356H82.6191V202.797Z" fill="#4B9AC2"/>
<path d="M209.168 60.2828H209.991V55.343H209.168V60.2828ZM209.168 67.6941H209.991V62.7532H209.168V67.6941ZM209.168 75.1055H209.991V70.1646H209.168V75.1055ZM209.168 82.5157H209.991V77.5748H209.168V82.5157ZM209.168 89.9259H209.991V84.985H209.168V89.9259ZM209.168 97.3373H209.991V92.3964H209.168V97.3373ZM209.168 104.748H209.991V99.8066H209.168V104.748ZM209.168 112.158H209.991V107.218H209.168V112.158ZM209.168 119.569H209.991V114.628H209.168V119.569ZM209.168 126.979H209.991V122.04H209.168V126.979ZM209.168 132.833H209.991V129.45H209.168V132.833Z" fill="#4B9AC2"/>
<path d="M165.835 149.08C165.835 149.794 166.336 150.082 166.953 149.727C167.571 149.37 168.071 148.502 168.071 147.789C168.071 147.077 167.571 146.787 166.953 147.144C166.336 147.5 165.835 148.368 165.835 149.08Z" fill="#4B9AC2"/>
<path d="M103.144 159.357C103.144 160.069 103.644 160.359 104.261 160.002C104.879 159.646 105.38 158.778 105.38 158.066C105.38 157.352 104.879 157.063 104.261 157.419C103.644 157.776 103.144 158.643 103.144 159.357Z" fill="#4B9AC2"/>
<path d="M188.93 82.8236C188.93 83.5369 189.43 83.8258 190.047 83.4691C190.666 83.1125 191.166 82.2458 191.166 81.5325C191.166 80.8191 190.666 80.5303 190.047 80.8869C189.43 81.2436 188.93 82.1103 188.93 82.8236Z" fill="white"/>
<path d="M125.383 119.513C125.383 120.226 125.883 120.515 126.5 120.159C127.118 119.802 127.619 118.935 127.619 118.222C127.619 117.509 127.118 117.22 126.5 117.576C125.883 117.933 125.383 118.8 125.383 119.513Z" fill="#4B9AC2"/>
<path d="M63.3096 186.371L80.2259 176.604C80.4578 176.47 80.6682 176.466 80.8323 176.556C80.856 176.569 80.8798 176.58 80.9024 176.598L85.2513 179.175C85.2691 179.186 85.275 179.21 85.2643 179.227L81.1735 186.081C81.1711 186.087 81.1687 186.094 81.1687 186.1V183.914C81.1687 184.608 80.7466 185.414 80.2259 185.715L71.5103 190.746C71.5044 190.75 71.4997 190.755 71.4973 190.761L67.1115 198.107C67.1008 198.126 67.0783 198.132 67.0592 198.12L62.6557 195.505C62.4773 195.379 62.3668 195.124 62.3668 194.769V188.172C62.3668 187.478 62.7888 186.672 63.3096 186.371Z" fill="white"/>
<path d="M81.7038 183.914H80.6338C80.6338 184.456 80.2771 185.067 79.9585 185.251L71.1169 190.355L71.0325 190.494L66.9072 197.408L62.928 195.045C62.9399 195.046 62.9031 194.964 62.9031 194.769V188.172C62.9031 187.629 63.2585 187.018 63.5771 186.835L80.4947 177.067C80.5482 177.036 80.5815 177.029 80.591 177.029L84.5499 179.381L81.7038 184.149V183.914ZM67.2329 198.846L67.5646 198.394L71.8897 191.146L80.4947 186.179C80.5411 186.151 80.5886 186.12 80.6338 186.088V186.1H81.7038H81.1688L81.6194 186.377L86.0004 179.04L85.5224 178.714L81.0998 176.091C80.7515 175.9 80.339 175.921 79.9585 176.141L63.0421 185.908C62.3514 186.306 61.8319 187.28 61.8319 188.172V194.769C61.8319 195.289 62.0138 195.705 62.3443 195.942L67.2329 198.846Z" fill="black"/>
<path d="M72.3057 188.334C72.3105 188.343 72.3129 188.352 72.3129 188.362L72.1928 190.353L71.5104 190.746C71.5044 190.75 71.4997 190.755 71.4973 190.761L67.1354 198.067C67.0902 198.078 67.0652 198.085 67.02 198.096L62.6546 195.505C62.4774 195.379 62.3669 195.124 62.3669 194.77V188.255C62.3669 188.218 62.4061 188.195 62.437 188.214L66.7478 190.774C66.7549 190.777 66.7597 190.783 66.7644 190.789L72.3057 188.334Z" fill="black"/>
<path d="M71.6756 190.033L71.1168 190.355L71.0324 190.494L66.9071 197.408L62.928 195.045C62.9398 195.046 62.9018 194.964 62.9018 194.769V189.112L66.3661 191.17L66.5445 191.472L71.7268 189.177L71.6756 190.033ZM66.9356 198.669L67.4813 198.533L71.8896 191.146L72.71 190.673L72.8562 188.228L72.5209 187.654L66.806 190.185L62.4417 187.595L61.8544 187.903L61.8306 188.253V194.769C61.8306 195.289 62.0138 195.705 62.3443 195.942L66.9356 198.669Z" fill="black"/>
<path d="M67.7001 198.089L84.6176 188.322C85.1384 188.022 85.5604 187.215 85.5604 186.521V179.924C85.5604 179.23 85.1384 178.911 84.6176 179.212L67.7001 188.979C67.1806 189.279 66.7585 190.085 66.7585 190.78V197.377C66.7585 198.071 67.1806 198.39 67.7001 198.089Z" fill="#C3E4FF"/>
<path d="M84.991 179.634C84.9767 179.636 85.0243 179.728 85.0243 179.924V186.521C85.0243 187.063 84.6688 187.674 84.3502 187.859L67.4327 197.625C67.3744 197.66 67.3363 197.667 67.3268 197.667C67.3423 197.663 67.2936 197.573 67.2936 197.377V190.78C67.2936 190.238 67.6502 189.626 67.9688 189.442L84.8852 179.676C84.9446 179.641 84.9815 179.634 84.991 179.634ZM67.3257 198.737C67.5361 198.737 67.756 198.675 67.9688 198.552L84.8852 188.786C85.5747 188.386 86.0955 187.414 86.0955 186.521V179.924C86.0955 179.363 85.8779 178.916 85.501 178.698C85.1646 178.502 84.7437 178.521 84.3502 178.748L67.4327 188.515C66.7431 188.913 66.2224 189.887 66.2224 190.78V197.377C66.2224 197.938 66.4399 198.385 66.8168 198.602C66.9725 198.692 67.145 198.737 67.3257 198.737Z" fill="black"/>
<path d="M81.8214 181.318L82.3873 180.409L78.168 177.781L77.6021 178.69L81.8214 181.318Z" fill="black"/>
<path d="M66.1581 194.968L66.5825 194.262L62.8685 192.026L62.4429 192.732L66.1581 194.968Z" fill="#C3E4FF"/>
<path d="M187.823 92.3904L197.85 86.6006C197.997 86.5162 198.128 86.5186 198.228 86.5852L202.446 89.2138C202.525 89.2613 202.548 89.3624 202.502 89.442L198.432 93.804C198.417 93.8301 198.409 93.8598 198.409 93.8907V95.2984C198.409 95.7097 198.158 96.1876 197.85 96.366L196.451 94.7027C196.426 94.717 196.405 94.7372 196.39 94.7622L191.91 99.8125C191.863 99.8933 191.758 99.9183 191.679 99.8695L187.447 97.2327C187.447 97.2327 187.264 97.008 187.264 96.7892V93.458C187.264 93.0467 187.514 92.5687 187.823 92.3904Z" fill="white"/>
<path d="M195.968 94.4316L191.695 99.2489L187.825 96.8379C187.812 96.8117 187.8 96.7868 187.798 96.7725L187.799 93.4568C187.799 93.2047 187.973 92.9206 188.09 92.8528L198.048 87.1035L201.781 89.4289L197.972 93.5316C197.908 93.6398 197.874 93.7635 197.874 93.8907V95.2983C197.874 95.3708 197.859 95.4457 197.836 95.517L196.571 94.0131L196.182 94.239C196.098 94.2878 196.025 94.3532 195.968 94.4316ZM191.765 100.429C191.821 100.429 191.876 100.424 191.931 100.41C192.092 100.371 192.235 100.275 192.332 100.143L196.436 95.517L197.73 97.0543L198.117 96.8296C198.589 96.5573 198.945 95.8987 198.945 95.2983V94.0405L202.962 89.7154C203.156 89.3873 203.051 88.9581 202.728 88.7584L198.512 86.131C198.248 85.955 197.895 85.9562 197.582 86.1369L187.554 91.9267C187.084 92.1977 186.728 92.8564 186.728 93.4568V96.7892C186.728 97.1791 186.984 97.5096 187.034 97.5714L187.164 97.6867L191.396 100.324C191.507 100.394 191.635 100.429 191.765 100.429Z" fill="black"/>
<path d="M194.865 96.9461C194.865 96.9461 194.877 97.0484 194.894 97.2231L191.941 99.7126C191.86 99.8481 191.683 99.8909 191.549 99.8077L187.418 97.2326C187.418 97.2326 187.235 97.008 187.235 96.7892V93.6637C187.235 93.5733 187.333 93.5186 187.409 93.5662L191.585 96.1686C191.6 96.1793 191.613 96.1924 191.623 96.209L194.865 96.9461Z" fill="black"/>
<path d="M193.98 97.2933L191.662 99.2477L187.796 96.8379C187.783 96.8118 187.771 96.7868 187.768 96.7725V94.4209L191.215 96.5692L191.282 96.6798L193.98 97.2933ZM191.696 100.385C191.762 100.385 191.826 100.378 191.89 100.362C192.07 100.319 192.225 100.22 192.337 100.079L195.457 97.449L195.356 96.5086L191.869 95.7144L187.692 93.112C187.491 92.9884 187.239 92.98 187.034 93.0954C186.827 93.2095 186.698 93.4283 186.698 93.6637V96.7892C186.698 97.1791 186.954 97.5096 187.004 97.5714L187.135 97.6868L191.266 100.262C191.398 100.344 191.545 100.385 191.696 100.385Z" fill="black"/>
<path d="M192.197 99.9385L202.224 94.1498C202.533 93.9715 202.783 93.4936 202.783 93.0822V89.7499C202.783 89.3385 202.533 89.1495 202.224 89.3278L192.197 95.1164C191.889 95.2947 191.638 95.7727 191.638 96.184V99.5164C191.638 99.9277 191.889 100.117 192.197 99.9385Z" fill="#C3E4FF"/>
<path d="M202.242 89.9354L202.248 93.0823C202.248 93.3344 202.074 93.6185 201.956 93.6863L192.18 99.3298L192.174 96.1841C192.174 95.9309 192.348 95.6479 192.464 95.5801L202.242 89.9354ZM191.931 99.476L192.197 99.9385L191.923 99.4784C191.926 99.4772 191.928 99.4772 191.931 99.476ZM191.975 100.541C192.136 100.541 192.304 100.495 192.464 100.402L202.492 94.6136C202.963 94.3402 203.319 93.6815 203.319 93.0823V89.7499C203.319 89.3374 203.151 89.0033 202.857 88.8345C202.586 88.6788 202.258 88.6895 201.956 88.8642L191.929 94.6528C191.459 94.9251 191.103 95.5837 191.103 96.1841V99.5165C191.103 99.929 191.271 100.262 191.563 100.432C191.69 100.504 191.831 100.541 191.975 100.541Z" fill="black"/>
<path d="M199.448 91.0292L200.014 90.1197L195.796 87.4923L195.23 88.4018L199.448 91.0292Z" fill="black"/>
<path d="M191.054 98.5071L191.479 97.8021L187.765 95.5646L187.34 96.2708L191.054 98.5071Z" fill="#C3E4FF"/>
<path d="M187.73 109.594L191.201 107.561C191.348 107.477 191.48 107.479 191.58 107.546L195.798 110.175C195.875 110.222 195.9 110.324 195.853 110.403L191.783 114.765C191.768 114.791 191.759 114.821 191.759 114.852V116.259C191.759 116.671 190.11 115.484 189.801 115.662C189.778 115.677 189.756 115.698 189.742 115.722L191.819 117.017C191.771 117.097 191.666 117.124 191.586 117.074L187.356 114.437C187.356 114.437 187.173 114.212 187.173 113.993V110.662C187.173 110.251 187.422 109.773 187.73 109.594Z" fill="white"/>
<path d="M195.133 110.39L191.33 114.482C191.261 114.592 191.224 114.72 191.224 114.852V115.614C191.166 115.585 191.11 115.558 191.06 115.533C190.421 115.215 189.956 114.981 189.565 115.183L187.734 114.041C187.721 114.016 187.709 113.991 187.706 113.978L187.708 110.662C187.708 110.409 187.881 110.126 187.999 110.058L188.001 110.056L191.4 108.064L195.133 110.39ZM191.675 117.634C191.73 117.634 191.787 117.628 191.841 117.615C192.026 117.569 192.181 117.454 192.278 117.291L192.548 116.841L192.235 116.646L192.261 116.629L192.296 116.259V115.003L196.313 110.676C196.506 110.351 196.403 109.921 196.082 109.72L191.863 107.092C191.6 106.918 191.249 106.915 190.934 107.098L187.462 109.132C186.991 109.404 186.636 110.062 186.636 110.662V113.994C186.636 114.384 186.891 114.714 186.943 114.777L187.073 114.891L191.303 117.528C191.417 117.598 191.544 117.634 191.675 117.634Z" fill="black"/>
<path d="M194.773 114.15C194.773 114.15 194.785 114.254 194.803 114.428L191.85 116.917C191.769 117.052 191.592 117.095 191.457 117.012L187.326 114.437C187.326 114.437 187.143 114.212 187.143 113.993V110.868C187.143 110.779 187.242 110.724 187.318 110.77L191.492 113.373C191.509 113.383 191.522 113.398 191.531 113.413L194.773 114.15Z" fill="black"/>
<path d="M193.89 114.499L191.57 116.452L187.704 114.041C187.691 114.016 187.679 113.991 187.677 113.978V111.625L191.121 113.772L191.186 113.884L193.89 114.499ZM191.605 117.59C191.669 117.59 191.734 117.582 191.799 117.567C191.977 117.523 192.133 117.424 192.246 117.283L195.365 114.654L195.264 113.713L191.776 112.92L187.601 110.316C187.4 110.192 187.148 110.185 186.941 110.301C186.735 110.415 186.607 110.632 186.607 110.868V113.994C186.607 114.384 186.861 114.714 186.914 114.777L187.043 114.891L191.174 117.466C191.306 117.548 191.454 117.59 191.605 117.59Z" fill="black"/>
<path d="M192.105 117.143L195.576 115.11C195.884 114.931 196.134 114.455 196.134 114.042V110.711C196.134 110.299 195.884 110.11 195.576 110.289L192.105 112.321C191.796 112.499 191.547 112.977 191.547 113.388V116.72C191.547 117.132 191.796 117.321 192.105 117.143Z" fill="#C3E4FF"/>
<path d="M195.592 110.899L195.598 114.042C195.598 114.295 195.425 114.579 195.307 114.646L192.089 116.532L192.082 113.388C192.082 113.136 192.256 112.852 192.373 112.784L195.592 110.899ZM191.835 116.681L192.105 117.143L191.832 116.682C191.833 116.682 191.833 116.681 191.835 116.681ZM191.883 117.745C192.045 117.745 192.212 117.699 192.373 117.606L192.375 117.605L195.846 115.572C196.314 115.302 196.669 114.644 196.669 114.042V110.711C196.669 110.298 196.502 109.964 196.209 109.795C195.938 109.64 195.61 109.65 195.307 109.825L191.835 111.859C191.366 112.129 191.01 112.788 191.01 113.388V116.721C191.01 117.133 191.179 117.466 191.472 117.636C191.599 117.708 191.739 117.745 191.883 117.745Z" fill="black"/>
<path d="M190.963 115.486L191.387 114.78L187.673 112.544L187.249 113.249L190.963 115.486Z" fill="#C3E4FF"/>
<path d="M154.943 122.672L158.413 120.64C158.56 120.555 158.691 120.558 158.791 120.625L163.009 123.252C163.086 123.301 163.111 123.402 163.065 123.48L158.995 127.844C158.98 127.87 158.972 127.899 158.972 127.929V129.338C158.972 129.749 157.322 128.563 157.014 128.741C156.989 128.755 156.968 128.776 156.953 128.801L159.031 130.095C158.982 130.176 158.878 130.201 158.798 130.151L154.568 127.514C154.568 127.514 154.384 127.291 154.384 127.072V123.74C154.384 123.328 154.634 122.85 154.943 122.672Z" fill="white"/>
<path d="M162.344 123.469L158.541 127.559C158.472 127.67 158.435 127.798 158.435 127.929V128.691C158.377 128.664 158.323 128.635 158.271 128.61C157.632 128.293 157.168 128.06 156.776 128.261L154.946 127.12C154.932 127.095 154.921 127.07 154.918 127.055L154.919 123.74C154.919 123.488 155.092 123.203 155.21 123.136L155.212 123.134L158.611 121.143L162.344 123.469ZM158.886 130.712C158.942 130.712 158.998 130.706 159.054 130.692C159.238 130.647 159.393 130.533 159.49 130.37L159.759 129.918L159.446 129.723L159.472 129.708L159.507 129.338V128.08L163.525 123.754C163.719 123.428 163.615 122.999 163.293 122.798L159.074 120.169C158.812 119.996 158.46 119.993 158.145 120.177L154.673 122.21C154.203 122.482 153.848 123.139 153.848 123.74V127.072C153.848 127.462 154.103 127.792 154.154 127.854L154.285 127.97L158.514 130.605C158.628 130.677 158.755 130.712 158.886 130.712Z" fill="black"/>
<path d="M161.985 127.228C161.985 127.228 161.996 127.331 162.015 127.506L159.061 129.994C158.98 130.131 158.803 130.174 158.67 130.089L154.538 127.514C154.538 127.514 154.354 127.291 154.354 127.072V123.946C154.354 123.856 154.453 123.801 154.529 123.849L158.704 126.451C158.72 126.461 158.734 126.475 158.743 126.492L161.985 127.228Z" fill="black"/>
<path d="M161.101 127.576L158.783 129.529L154.916 127.119C154.902 127.094 154.891 127.07 154.888 127.055L154.889 124.704L158.333 126.85L158.397 126.963L161.101 127.576ZM158.817 130.668C158.881 130.668 158.947 130.66 159.011 130.644C159.189 130.602 159.344 130.502 159.457 130.36L162.576 127.733L162.475 126.79L158.988 125.997L154.812 123.395C154.611 123.27 154.36 123.263 154.153 123.378C153.947 123.493 153.818 123.711 153.818 123.946V127.072C153.818 127.462 154.074 127.792 154.125 127.854L154.255 127.969L158.386 130.545C158.518 130.627 158.666 130.668 158.817 130.668Z" fill="black"/>
<path d="M159.317 130.221L162.787 128.188C163.096 128.01 163.346 127.532 163.346 127.121V123.788C163.346 123.377 163.096 123.188 162.787 123.366L159.317 125.399C159.009 125.578 158.758 126.055 158.758 126.467V129.799C158.758 130.211 159.009 130.4 159.317 130.221Z" fill="#C3E4FF"/>
<path d="M162.803 123.977L162.811 127.121C162.811 127.374 162.637 127.657 162.519 127.725L159.3 129.61L159.294 126.467C159.294 126.214 159.467 125.931 159.585 125.863L162.803 123.977ZM159.047 129.76L159.316 130.221L159.043 129.761C159.044 129.76 159.045 129.76 159.047 129.76ZM159.094 130.824C159.257 130.824 159.423 130.776 159.585 130.685L159.588 130.682L163.057 128.65C163.526 128.38 163.882 127.722 163.882 127.121V123.788C163.882 123.376 163.713 123.043 163.42 122.873C163.151 122.718 162.822 122.729 162.519 122.903L159.047 124.937C158.578 125.208 158.223 125.865 158.223 126.467V129.799C158.223 130.212 158.39 130.545 158.683 130.713C158.81 130.787 158.95 130.824 159.094 130.824Z" fill="black"/>
<path d="M158.174 128.564L158.598 127.859L154.884 125.623L154.46 126.328L158.174 128.564Z" fill="#C3E4FF"/>
<path d="M91.5583 91.9504L91.8293 92.4117L91.5559 91.9516C91.5559 91.9516 91.5571 91.9504 91.5583 91.9504Z" fill="black"/>
<path d="M146.007 110.481L174.196 94.2057C174.444 94.0631 174.667 94.0642 174.835 94.1748H174.836C174.845 94.1819 174.857 94.1867 174.867 94.1938L179.003 96.6524C179.1 96.7106 179.135 96.8379 179.078 96.9377L175.166 103.788C175.149 103.819 175.139 103.856 175.139 103.891V127.711C175.139 128.406 174.717 129.212 174.196 129.513L153.781 141.299C153.749 141.318 153.723 141.344 153.704 141.378L149.809 148.197C149.752 148.299 149.621 148.334 149.52 148.274L145.359 145.814C145.178 145.69 145.064 145.434 145.064 145.075V112.281C145.064 111.588 145.486 110.781 146.007 110.481Z" fill="white"/>
<path d="M178.454 96.9485L174.702 103.523C174.636 103.639 174.603 103.765 174.603 103.891V127.712C174.603 128.254 174.247 128.865 173.929 129.049L153.514 140.835C153.396 140.904 153.302 140.999 153.238 141.112L149.508 147.645L145.631 145.353C145.631 145.354 145.633 145.354 145.633 145.354C145.646 145.354 145.599 145.264 145.599 145.075V112.281C145.599 111.739 145.956 111.128 146.275 110.944L174.464 94.6694C174.521 94.6373 174.555 94.6302 174.565 94.6302L178.454 96.9485ZM149.626 148.839C149.689 148.839 149.753 148.831 149.815 148.814C150.011 148.763 150.173 148.639 150.274 148.463L154.125 141.719L174.464 129.976C175.154 129.578 175.674 128.604 175.674 127.712V103.977L179.541 97.2029C179.744 96.8522 179.623 96.398 179.276 96.1924L175.14 93.7338C174.779 93.4972 174.341 93.5043 173.929 93.7421L145.74 110.018C145.05 110.416 144.528 111.388 144.528 112.281V145.075C144.528 145.602 144.716 146.021 145.055 146.254L149.248 148.734C149.363 148.803 149.493 148.839 149.626 148.839Z" fill="black"/>
<path d="M161.055 123.713C160.942 124.285 159.496 131.562 158.068 138.799C158.065 138.817 158.054 138.832 158.037 138.842L153.797 141.291C153.762 141.325 153.73 141.357 153.695 141.392L149.841 148.141C149.766 148.274 149.596 148.319 149.464 148.241L145.359 145.814C145.178 145.69 145.064 145.434 145.064 145.075V112.393C145.064 112.344 145.118 112.313 145.161 112.338L149.452 114.887C149.455 114.888 149.457 114.89 149.458 114.891L161.031 123.653C161.05 123.668 161.059 123.69 161.055 123.713Z" fill="black"/>
<path d="M157.585 138.485L153.231 141.127L149.508 147.645L145.631 145.353C145.631 145.354 145.633 145.354 145.633 145.354C145.646 145.354 145.599 145.264 145.599 145.075V113.222L149.179 115.347L160.472 123.901L160.466 123.931C160.155 125.501 158.867 131.983 157.585 138.485ZM149.602 148.815C149.671 148.815 149.741 148.806 149.81 148.788C150.022 148.732 150.198 148.596 150.306 148.406L154.126 141.719L158.521 139.181L158.595 138.893C159.891 132.331 161.201 125.727 161.516 124.14L161.645 123.492L161.356 123.23L149.782 114.465L145.165 111.719L144.829 111.873C144.645 111.98 144.528 112.179 144.528 112.393V145.075C144.528 145.602 144.716 146.021 145.055 146.254L149.192 148.702C149.318 148.777 149.46 148.815 149.602 148.815Z" fill="black"/>
<path d="M150.399 148.395L178.588 132.12C179.108 131.82 179.53 131.013 179.53 130.32V97.5263C179.53 96.832 179.108 96.5134 178.588 96.8129L150.399 113.088C149.878 113.389 149.456 114.195 149.456 114.89V147.682C149.456 148.376 149.878 148.696 150.399 148.395Z" fill="#C3E4FF"/>
<path d="M150.131 147.932C150.072 147.966 150.034 147.973 150.024 147.973C150.04 147.97 149.992 147.878 149.992 147.682V114.89C149.992 114.346 150.348 113.735 150.665 113.552L178.855 97.2766C178.914 97.2421 178.951 97.235 178.961 97.235C178.946 97.2386 178.995 97.3301 178.995 97.5263V130.319C178.995 130.862 178.638 131.473 178.319 131.656L150.131 147.932ZM150.022 149.043C150.233 149.043 150.453 148.982 150.665 148.859H150.666L178.855 132.583C179.545 132.185 180.066 131.212 180.066 130.319V97.5263C180.066 96.9639 179.849 96.5181 179.472 96.3005C179.134 96.1044 178.713 96.1222 178.319 96.3493L150.131 112.625C149.442 113.022 148.921 113.996 148.921 114.89V147.682C148.921 148.243 149.137 148.69 149.514 148.908C149.669 148.998 149.844 149.043 150.022 149.043Z" fill="black"/>
<path d="M175.247 98.9518L175.813 98.0435L171.595 95.4161L171.029 96.3244L175.247 98.9518Z" fill="black"/>
<path d="M148.857 143.295L149.281 142.59L145.567 140.354L145.142 141.059L148.857 143.295Z" fill="#C3E4FF"/>
<path d="M63.4547 162.582L80.3711 152.814C80.6029 152.681 80.8133 152.677 80.9774 152.767C81.0012 152.78 81.0261 152.791 81.0475 152.809L85.3964 155.386C85.4142 155.397 85.4202 155.42 85.4095 155.438L81.3198 162.292C81.3162 162.298 81.3138 162.305 81.3138 162.311V171.659C81.3138 172.353 80.8918 173.16 80.3711 173.46L71.6555 178.493C71.6507 178.495 71.646 178.5 71.6424 178.506L67.2567 185.853C67.246 185.871 67.2234 185.877 67.2044 185.866L62.8008 183.251C62.6225 183.125 62.5119 182.87 62.5119 182.515V164.383C62.5119 163.689 62.934 162.883 63.4547 162.582Z" fill="white"/>
<path d="M84.6949 155.592L80.7835 162.145L80.7776 162.311V171.659C80.7776 172.202 80.4221 172.814 80.1035 172.997L71.2631 178.102L71.1775 178.241L67.0521 185.153L63.0742 182.791C63.0944 182.8 63.0468 182.711 63.0468 182.515V164.382C63.0468 163.841 63.4035 163.23 63.7221 163.046L80.6385 153.278C80.6932 153.247 80.7265 153.24 80.7348 153.24C80.7348 153.24 80.7348 153.24 80.736 153.24L84.6949 155.592ZM67.1247 186.442L67.586 186.331L67.7203 186.121L72.0358 178.891L80.6385 173.924C81.3292 173.526 81.8487 172.552 81.8487 171.659V162.448L85.9824 155.524L85.8802 155.063L85.6674 154.925L81.2472 152.304C80.8989 152.112 80.4863 152.131 80.1035 152.351L63.1859 162.119C62.4964 162.517 61.9757 163.49 61.9757 164.382V182.515C61.9757 183.035 62.1588 183.452 62.4905 183.687L67.1247 186.442Z" fill="black"/>
<path d="M72.4509 176.081C72.4556 176.089 72.458 176.098 72.458 176.108L72.3379 178.099L71.6555 178.493C71.6508 178.495 71.646 178.5 71.6425 178.506L67.2805 185.813C67.2353 185.824 67.2104 185.83 67.1652 185.842L62.8009 183.251C62.6225 183.125 62.5119 182.87 62.5119 182.515V164.465C62.5119 164.428 62.5512 164.406 62.5821 164.425L66.8929 166.985C66.9001 166.988 66.906 166.994 66.9096 167L72.4509 176.081Z" fill="black"/>
<path d="M71.8207 177.779L71.2631 178.102L71.1775 178.241L67.0521 185.153L63.0742 182.79C63.0944 182.8 63.0469 182.711 63.0469 182.515V165.322L66.516 167.383L71.9146 176.23L71.8207 177.779ZM67.0819 186.415L67.6276 186.276L72.0358 178.891L72.855 178.418L73.0024 175.975L72.9073 175.802L67.3006 166.614L67.177 166.53L62.5868 163.805L61.9995 164.113L61.9757 164.464V182.515C61.9757 183.035 62.1588 183.451 62.4905 183.687L67.0819 186.415Z" fill="black"/>
<path d="M67.8463 185.835L84.7627 176.067C85.2834 175.768 85.7054 174.961 85.7054 174.267V156.135C85.7054 155.441 85.2834 155.122 84.7627 155.423L67.8463 165.189C67.3256 165.49 66.9035 166.296 66.9035 166.99V185.122C66.9035 185.816 67.3256 186.136 67.8463 185.835Z" fill="#C3E4FF"/>
<path d="M67.5776 185.372C67.5193 185.406 67.4825 185.413 67.4718 185.413C67.4872 185.41 67.4385 185.318 67.4385 185.122V166.991C67.4385 166.448 67.7951 165.837 68.1125 165.653L85.0313 155.887C85.0895 155.852 85.1276 155.845 85.1371 155.845C85.1217 155.847 85.1704 155.939 85.1704 156.135V174.268C85.1704 174.81 84.8138 175.421 84.4951 175.604L67.5776 185.372ZM67.4694 186.483C67.681 186.483 67.9009 186.421 68.1125 186.299L85.0313 176.531C85.7208 176.133 86.2416 175.159 86.2416 174.268V156.135C86.2416 155.574 86.024 155.127 85.6471 154.909C85.3083 154.713 84.8875 154.732 84.4951 154.959L67.5776 164.726C66.888 165.124 66.3673 166.098 66.3673 166.991V185.122C66.3673 185.683 66.5837 186.13 66.9605 186.348C67.1163 186.438 67.2899 186.483 67.4694 186.483Z" fill="black"/>
<path d="M81.9653 157.528L82.5312 156.62L78.3132 153.991L77.7472 154.901L81.9653 157.528Z" fill="black"/>
<path d="M66.302 182.714L66.7264 182.008L63.0124 179.772L62.588 180.477L66.302 182.714Z" fill="#C3E4FF"/>
<path d="M187.319 77.3857L197.346 71.596C197.493 71.5115 197.624 71.5151 197.724 71.5817L201.942 74.2091C202.02 74.2578 202.044 74.3589 201.998 74.4374L197.928 81.2721C197.913 81.2983 197.905 81.328 197.905 81.3577V82.7665C197.905 83.1779 197.655 83.6558 197.346 83.8341L195.947 84.6414C195.922 84.6556 195.901 84.6758 195.886 84.7008L191.408 92.2239C191.359 92.3048 191.254 92.3298 191.174 92.2798L186.943 89.6429C186.943 89.6429 186.76 89.4182 186.76 89.2007V78.4533C186.76 78.042 187.01 77.564 187.319 77.3857Z" fill="white"/>
<path d="M201.355 74.473L197.468 80.9987C197.404 81.1069 197.37 81.2318 197.37 81.3578V82.7666C197.37 83.0198 197.195 83.3028 197.078 83.3705L195.679 84.1778C195.573 84.2396 195.486 84.3264 195.426 84.4286L191.139 91.6284L187.323 89.2494C187.309 89.2233 187.298 89.1983 187.294 89.1841L187.296 78.4534C187.296 78.2002 187.47 77.9172 187.586 77.8482L197.544 72.1001L201.355 74.473ZM191.265 92.8398C191.319 92.8398 191.374 92.8339 191.428 92.8208C191.61 92.7768 191.771 92.6591 191.866 92.4974L196.297 85.0575L197.613 84.2978C198.085 84.0256 198.44 83.3681 198.44 82.7666V81.4588L202.458 74.7108C202.652 74.3851 202.548 73.9571 202.226 73.755L198.008 71.1276C197.745 70.9528 197.392 70.9516 197.078 71.1335L187.05 76.9221C186.581 77.1944 186.225 77.8518 186.225 78.4534V89.2007C186.225 89.5895 186.478 89.92 186.528 89.9818L186.66 90.0971L190.892 92.734C191.002 92.8042 191.133 92.8398 191.265 92.8398Z" fill="black"/>
<path d="M194.362 86.8847C194.362 86.8847 194.373 86.9882 194.39 87.1629L191.437 92.1229C191.356 92.2584 191.179 92.3024 191.045 92.218L186.915 89.6429C186.915 89.6429 186.731 89.4182 186.731 89.2006V78.659C186.731 78.5698 186.829 78.5139 186.905 78.5627L191.081 81.1639C191.096 81.1746 191.11 81.1889 191.119 81.2043L194.362 86.8847Z" fill="black"/>
<path d="M193.836 87.0464L191.11 91.6283L187.293 89.2494C187.279 89.2233 187.268 89.1983 187.264 89.184L187.266 79.4175L190.708 81.5634L193.836 87.0464ZM191.194 92.797C191.258 92.797 191.323 92.7887 191.387 92.7732C191.602 92.7209 191.783 92.5877 191.896 92.3975L194.942 87.283L194.881 86.716L191.518 80.8228L191.364 80.711L187.188 78.1086C186.989 77.9837 186.736 77.9766 186.531 78.0907C186.324 78.2049 186.196 78.4236 186.196 78.659V89.2007C186.196 89.5894 186.449 89.92 186.499 89.9818L186.631 90.0971L190.763 92.6722C190.894 92.7542 191.043 92.797 191.194 92.797Z" fill="black"/>
<path d="M191.693 92.35L201.72 86.5602C202.029 86.3819 202.278 85.9051 202.278 85.4926V74.7452C202.278 74.3339 202.029 74.1449 201.72 74.3232L191.693 80.113C191.385 80.2901 191.134 80.768 191.134 81.1794V91.9279C191.134 92.3392 191.385 92.5283 191.693 92.35Z" fill="#C3E4FF"/>
<path d="M201.736 74.9319L201.743 85.4926C201.743 85.7459 201.57 86.03 201.452 86.0966L191.677 91.7401L191.67 81.1794C191.67 80.9274 191.844 80.6432 191.961 80.5755L201.736 74.9319ZM191.425 91.8875L191.693 92.35L191.419 91.8887C191.42 91.8887 191.423 91.8875 191.425 91.8875ZM191.47 92.9528C191.632 92.9528 191.801 92.9064 191.96 92.8125L201.988 87.0239C202.459 86.7516 202.815 86.0942 202.815 85.4926V74.7453C202.815 74.3327 202.647 73.9987 202.353 73.8299C202.083 73.6729 201.754 73.6848 201.452 73.8608L191.425 79.6482C190.953 79.9216 190.599 80.5802 190.599 81.1794V91.9268C190.599 92.3393 190.768 92.6734 191.06 92.8434C191.187 92.9159 191.327 92.9528 191.47 92.9528Z" fill="black"/>
<path d="M198.944 76.0244L199.51 75.1161L195.291 72.4875L194.726 73.397L198.944 76.0244Z" fill="black"/>
<path d="M190.552 89.2709L190.976 88.5659L187.262 86.3296L186.836 87.0346L190.552 89.2709Z" fill="#C3E4FF"/>
<path d="M119.048 178.977C119.22 178.641 123.234 170.712 123.426 166.422C123.486 165.074 123.441 163.973 123.294 163.152L122.24 163.341C122.374 164.085 122.413 165.106 122.357 166.375C122.176 170.435 118.137 178.411 118.095 178.491L119.048 178.977Z" fill="#C3E4FF"/>
<path d="M133.623 191.253L134.68 191.085C134.677 191.069 134.416 189.364 134.68 187.785L133.623 187.609C133.33 189.364 133.611 191.176 133.623 191.253Z" fill="#C3E4FF"/>
<path d="M104.978 167.195L108.591 166.151L108.294 165.123L104.681 166.167L104.978 167.195Z" fill="#C3E4FF"/>
<path d="M116.899 197.479C118.28 195.3 118.609 193.212 118.622 193.124L117.564 192.964C117.56 192.983 117.251 194.925 115.994 196.907L116.899 197.479Z" fill="#C3E4FF"/>
<path d="M112.629 208L112.929 207.459L104.804 202.965L104.504 203.506L112.629 208Z" fill="black"/>
<path d="M110.918 208.894L111.218 208.353L103.093 203.859L102.794 204.4L110.918 208.894Z" fill="black"/>
<path d="M109.393 209.85L109.691 209.31L101.567 204.815L101.268 205.356L109.393 209.85Z" fill="black"/>
<path d="M107.676 210.729L107.976 210.188L99.8513 205.694L99.5517 206.235L107.676 210.729Z" fill="black"/>
<path d="M105.331 211.198L105.629 210.657L99.1294 207.062L98.831 207.603L105.331 211.198Z" fill="black"/>
<path d="M102.791 211.712L103.096 211.174L99.1355 208.927L98.8312 209.465L102.791 211.712Z" fill="black"/>
<path d="M91.4588 260.748C91.4588 260.731 91.4553 223.21 91.4553 222.766C91.4553 222.719 91.4862 222.683 91.5302 222.671L103.653 223.757C103.661 223.755 103.67 223.751 103.677 223.747L104.787 217.06C104.819 217.041 104.859 217.041 104.891 217.06L116.052 223.462C116.075 223.477 116.104 223.48 116.13 223.473L118.263 222.879C118.33 222.861 118.395 222.907 118.394 222.975C118.393 223.521 118.39 260.788 118.384 260.849L118.382 260.868C118.345 261.225 118.158 261.569 117.803 261.776L106.559 268.297C105.602 268.853 104.42 268.855 103.46 268.301L92.0533 261.756C91.6716 261.535 91.4767 261.154 91.4612 260.768L91.4588 260.748Z" fill="#C3E4FF"/>
<path d="M117.859 223.547C117.858 224.956 117.858 228.797 117.858 233.507C117.855 244.283 117.853 260.568 117.851 260.838C117.837 260.938 117.778 261.171 117.533 261.314L106.29 267.833C105.502 268.292 104.52 268.295 103.728 267.838L92.3197 261.291C92.0415 261.129 91.9998 260.856 91.9963 260.747L91.4589 260.749L91.9951 260.745C91.9939 260.543 91.9904 227.656 91.9904 223.249L103.708 224.299L103.974 224.192L104.167 224.063L105.199 217.853L115.977 224.038L116.272 223.989L117.859 223.547ZM105.006 269.249C105.636 269.249 106.266 269.085 106.829 268.759L118.072 262.24C118.55 261.962 118.856 261.481 118.915 260.922C118.922 260.852 118.924 260.834 118.928 233.507C118.929 227.667 118.929 223.164 118.93 222.977C118.93 222.774 118.838 222.59 118.678 222.469C118.52 222.349 118.313 222.309 118.119 222.364L116.161 222.908L105.157 216.596C104.962 216.483 104.718 216.483 104.52 216.597L104.301 216.723L103.229 223.181L91.4827 222.129L91.3899 222.155C91.1129 222.23 90.9192 222.481 90.9192 222.766C90.9192 223.144 90.9227 260.735 90.9239 260.774L90.9311 260.834C90.9501 261.386 91.2711 261.921 91.7858 262.218L103.194 268.764C103.753 269.088 104.38 269.249 105.006 269.249Z" fill="black"/>
<path d="M91.5302 222.676L103.653 223.761C103.661 223.76 103.67 223.756 103.677 223.751L105.095 227.882L105.099 268.714C104.534 268.731 103.967 268.598 103.461 268.305L92.0533 261.76C91.6717 261.538 91.4767 261.159 91.4613 260.773L91.4589 260.752C91.4589 260.736 91.4554 223.214 91.4554 222.771C91.4554 222.724 91.4863 222.687 91.5302 222.676Z" fill="black"/>
<path d="M104.56 227.971L104.563 268.144C104.269 268.093 103.986 267.991 103.728 267.843L92.3197 261.296C92.0415 261.134 91.9999 260.86 91.9963 260.751C91.9939 260.547 91.9904 227.659 91.9904 223.253L103.288 224.267L104.56 227.971ZM105.004 269.25C105.041 269.25 105.077 269.25 105.114 269.249L105.634 269.234L105.602 227.708L103.975 222.973L103.541 223.214L91.478 222.132L91.3817 222.161C91.1059 222.242 90.9192 222.485 90.9192 222.771C90.9192 223.149 90.9228 260.739 90.924 260.779C90.9501 261.391 91.2711 261.926 91.7859 262.223L103.194 268.769C103.74 269.085 104.364 269.25 105.004 269.25Z" fill="black"/>
<path d="M116.666 224.406C116.666 224.406 116.499 223.955 116.291 223.373L118.263 222.824C118.33 222.805 118.395 222.853 118.394 222.92C118.393 223.466 118.39 260.733 118.384 260.794L118.382 260.812C118.345 261.17 118.158 261.514 117.803 261.72L116.67 262.38L116.666 227.147V224.406Z" fill="black"/>
<path d="M117.859 223.492C117.858 224.9 117.858 228.741 117.858 233.452C117.855 244.228 117.853 260.513 117.851 260.783C117.837 260.883 117.778 261.115 117.533 261.257L117.205 261.449L117.203 224.311L117.168 224.221C117.168 224.22 117.098 224.028 116.991 223.735L117.859 223.492ZM116.135 263.31L118.072 262.183C118.55 261.906 118.856 261.425 118.915 260.866C118.922 260.796 118.924 260.779 118.928 233.452C118.929 227.613 118.929 223.109 118.93 222.923C118.93 222.722 118.84 222.538 118.682 222.416C118.523 222.296 118.315 222.256 118.125 222.307L115.593 223.012L115.787 223.554C115.94 223.983 116.072 224.341 116.131 224.503L116.135 263.31Z" fill="black"/>
<path d="M106.504 230.353L117.799 223.803C118.595 223.34 118.592 222.192 117.797 221.732L106.338 215.156C105.411 214.621 104.269 214.622 103.343 215.161L92.0475 221.711C91.2521 222.174 91.2545 223.322 92.0498 223.782L103.509 230.358C104.435 230.893 105.578 230.892 106.504 230.353Z" fill="white"/>
<path d="M104.844 215.293C105.269 215.293 105.692 215.401 106.07 215.62L117.531 222.195C117.827 222.366 117.86 222.652 117.86 222.767C117.86 222.881 117.828 223.166 117.53 223.34L106.235 229.892C105.477 230.329 104.536 230.333 103.777 229.894L92.3161 223.317C92.02 223.146 91.988 222.861 91.988 222.747C91.988 222.631 92.0189 222.346 92.3161 222.174L103.612 215.623C103.992 215.402 104.419 215.293 104.844 215.293ZM105.002 231.292C105.615 231.292 106.227 231.134 106.773 230.817L118.068 224.266C118.609 223.951 118.931 223.39 118.93 222.766C118.929 222.14 118.605 221.581 118.065 221.268L106.604 214.692C105.517 214.063 104.162 214.065 103.074 214.698L91.7787 221.248C91.2378 221.564 90.9156 222.124 90.9168 222.749C90.918 223.373 91.2414 223.933 91.7823 224.245L103.243 230.822C103.785 231.136 104.394 231.292 105.002 231.292Z" fill="black"/>
<path d="M92.0415 217.701C92.0403 217.685 92.038 212.297 92.038 211.852C92.038 211.806 92.0689 211.77 92.1128 211.757L104.235 212.844C104.243 212.841 104.251 212.838 104.259 212.834L105.37 206.147C105.402 206.128 105.441 206.128 105.473 206.147L116.633 212.55C116.658 212.563 116.687 212.567 116.713 212.559L118.846 211.966C118.911 211.947 118.976 211.994 118.976 212.062C118.975 212.607 118.973 217.742 118.967 217.802L118.965 217.821C118.928 218.179 118.74 218.523 118.386 218.73L107.141 225.251C106.184 225.807 105.001 225.808 104.043 225.254L92.6359 218.709C92.2531 218.488 92.0593 218.108 92.0439 217.721L92.0415 217.701Z" fill="#C3E4FF"/>
<path d="M118.441 212.634L118.439 213.58C118.438 215.236 118.437 217.637 118.432 217.782C118.42 217.892 118.361 218.125 118.116 218.267L106.873 224.787C106.084 225.245 105.101 225.247 104.311 224.792L92.9022 218.245C92.624 218.083 92.5824 217.809 92.5788 217.7L92.5764 217.682C92.5764 217.404 92.5741 213.713 92.5729 212.336L104.289 213.386L104.555 213.279L104.749 213.15L105.78 206.94L116.561 213.124L116.854 213.077L118.441 212.634ZM105.589 226.203C106.219 226.203 106.849 226.039 107.41 225.713L118.653 219.193C119.132 218.915 119.439 218.435 119.497 217.876C119.504 217.807 119.505 217.786 119.51 213.581L119.513 212.064C119.513 211.862 119.421 211.677 119.261 211.556C119.101 211.436 118.894 211.396 118.701 211.45L116.744 211.996L105.74 205.683C105.543 205.57 105.301 205.57 105.102 205.683L104.884 205.809L103.81 212.268L92.0652 211.215L91.9725 211.241C91.6955 211.317 91.5017 211.568 91.5017 211.852C91.5017 211.91 91.5052 217.686 91.5064 217.726L91.5136 217.788C91.5326 218.34 91.8536 218.875 92.3684 219.172L103.777 225.718C104.335 226.041 104.962 226.203 105.589 226.203Z" fill="black"/>
<path d="M92.1128 211.762L104.234 212.848C104.244 212.846 104.251 212.842 104.259 212.838L105.678 216.969L105.681 225.668C105.117 225.684 104.548 225.551 104.043 225.259L92.6359 218.713C92.253 218.492 92.0593 218.113 92.0438 217.726L92.0414 217.706C92.0402 217.689 92.0379 212.301 92.0379 211.857C92.0379 211.81 92.0688 211.774 92.1128 211.762Z" fill="black"/>
<path d="M105.142 217.058L105.145 225.097C104.85 225.046 104.567 224.945 104.311 224.796L92.9022 218.249C92.624 218.088 92.5824 217.814 92.5788 217.705C92.5765 217.604 92.5741 213.752 92.5729 212.341L103.87 213.354L105.142 217.058ZM105.586 226.204C105.623 226.204 105.66 226.204 105.697 226.203L106.216 226.187L106.184 216.795L104.558 212.06L104.123 212.301L92.0605 211.22L91.963 211.247C91.6872 211.328 91.5017 211.573 91.5017 211.857C91.5017 211.915 91.5053 217.689 91.5065 217.732C91.5326 218.344 91.8536 218.879 92.3684 219.177L103.777 225.722C104.322 226.039 104.947 226.204 105.586 226.204Z" fill="black"/>
<path d="M117.248 213.494C117.248 213.494 117.081 213.042 116.873 212.46L118.846 211.91C118.911 211.893 118.976 211.939 118.976 212.007C118.975 212.552 118.973 217.687 118.967 217.748L118.965 217.766C118.928 218.123 118.74 218.468 118.386 218.674L117.251 219.334L117.248 216.233V213.494Z" fill="black"/>
<path d="M118.441 212.578L118.439 213.525C118.438 215.181 118.437 217.581 118.432 217.727C118.42 217.837 118.361 218.069 118.116 218.211L117.786 218.403L117.751 213.307C117.751 213.307 117.679 213.115 117.572 212.821L118.441 212.578ZM116.718 220.262L118.653 219.136C119.132 218.859 119.439 218.379 119.497 217.82C119.504 217.751 119.505 217.73 119.51 213.526L119.513 212.009C119.513 211.808 119.421 211.625 119.264 211.504C119.106 211.384 118.897 211.342 118.708 211.393L116.175 212.099L116.369 212.64C116.523 213.069 116.655 213.428 116.713 213.589L116.718 220.262Z" fill="black"/>
<path d="M107.085 219.441L118.382 212.89C119.176 212.428 119.175 211.279 118.379 210.819L106.92 204.243C105.993 203.707 104.85 203.708 103.925 204.247L92.6301 210.798C91.8347 211.26 91.8359 212.409 92.6324 212.869L104.091 219.444C105.018 219.98 106.161 219.979 107.085 219.441Z" fill="white"/>
<path d="M105.427 204.379C105.85 204.379 106.275 204.487 106.653 204.706L118.113 211.283C118.409 211.454 118.441 211.739 118.441 211.853C118.441 211.969 118.41 212.254 118.112 212.427L106.818 218.978C106.059 219.417 105.119 219.42 104.359 218.982L92.8986 212.405C92.6014 212.234 92.5693 211.948 92.5693 211.833C92.5693 211.719 92.6014 211.434 92.8986 211.26L104.194 204.71C104.574 204.489 105 204.379 105.427 204.379ZM105.585 220.379C106.197 220.379 106.81 220.22 107.355 219.903L118.651 213.352C119.19 213.038 119.513 212.477 119.513 211.853C119.511 211.228 119.188 210.668 118.647 210.355L107.186 203.778C106.099 203.15 104.744 203.151 103.657 203.784L92.3601 210.335C91.8203 210.649 91.4982 211.21 91.4994 211.834C91.5005 212.46 91.8239 213.019 92.3648 213.332L103.824 219.909C104.368 220.222 104.976 220.379 105.585 220.379Z" fill="black"/>
<path d="M103.009 258.244L109.358 254.654C109.619 254.503 109.83 254.098 109.83 253.751V241.651C109.83 241.303 109.619 241.143 109.358 241.294L103.009 244.884C102.748 245.035 102.537 245.439 102.537 245.786V257.887C102.537 258.234 102.748 258.393 103.009 258.244Z" fill="white"/>
<path d="M109.292 241.946L109.294 253.751C109.294 253.939 109.162 254.148 109.09 254.19L103.074 257.591L103.072 245.787C103.072 245.602 103.206 245.389 103.276 245.349L109.292 241.946ZM102.746 257.778L103.009 258.244L102.741 257.78C102.742 257.78 102.744 257.779 102.746 257.778ZM102.821 258.836C102.97 258.836 103.125 258.794 103.273 258.709L109.621 255.119C110.054 254.869 110.365 254.295 110.365 253.751V241.651C110.365 241.272 110.209 240.964 109.935 240.806C109.681 240.66 109.374 240.668 109.091 240.83L102.745 244.42C102.312 244.668 102.001 245.243 102.001 245.787V257.887C102.001 258.267 102.159 258.575 102.432 258.731C102.552 258.801 102.684 258.836 102.821 258.836Z" fill="black"/>
<path d="M105.118 247.486C105.118 247.896 105.405 248.062 105.761 247.857C106.116 247.652 106.404 247.153 106.404 246.743C106.404 246.333 106.116 246.166 105.761 246.371C105.405 246.576 105.118 247.076 105.118 247.486Z" fill="black"/>
<path d="M84.1533 210.531C84.1533 210.515 84.1497 205.126 84.1497 204.682C84.1497 204.636 84.1806 204.599 84.2245 204.587L96.3474 205.674C96.3557 205.671 96.3629 205.668 96.3712 205.663L97.4816 198.977C97.5137 198.958 97.553 198.958 97.5851 198.976L108.746 205.379C108.77 205.393 108.798 205.397 108.825 205.389L110.957 204.795C111.024 204.777 111.088 204.824 111.088 204.891C111.087 205.437 111.085 210.572 111.079 210.632L111.076 210.65C111.039 211.008 110.852 211.353 110.497 211.558L99.253 218.079C98.296 218.636 97.1142 218.638 96.1548 218.084L84.7477 211.538C84.3649 211.317 84.1711 210.937 84.1556 210.55L84.1533 210.531Z" fill="#C3E4FF"/>
<path d="M110.553 205.463L110.551 206.409C110.55 208.066 110.549 210.466 110.544 210.611C110.531 210.72 110.473 210.954 110.228 211.096L98.9845 217.616C98.1927 218.077 97.2119 218.078 96.4225 217.62L85.0141 211.073C84.7359 210.913 84.6955 210.638 84.6908 210.528H84.6884L84.686 205.165L96.3951 206.216L96.6305 206.131L96.8564 206.005L97.8931 199.77L108.68 205.958L108.98 205.901L110.553 205.463ZM97.7005 219.032C98.3306 219.032 98.9607 218.869 99.523 218.542L110.766 212.022C111.244 211.744 111.551 211.265 111.609 210.706C111.616 210.636 111.617 210.614 111.622 206.409L111.625 204.894C111.625 204.693 111.533 204.508 111.376 204.387C111.217 204.266 111.012 204.223 110.82 204.278L108.856 204.825L97.8515 198.512C97.6613 198.398 97.4164 198.396 97.2154 198.512L96.9955 198.638L95.922 205.098L84.1736 204.045L84.0785 204.072C83.8015 204.152 83.6148 204.397 83.6148 204.682L83.6244 210.617C83.6458 211.172 83.9679 211.706 84.4815 212.002L95.8887 218.548C96.4475 218.87 97.074 219.032 97.7005 219.032Z" fill="black"/>
<path d="M84.2245 204.591L96.3474 205.677C96.3557 205.675 96.3629 205.671 96.3712 205.668L97.7895 209.798L97.7931 218.497C97.2284 218.513 96.6601 218.38 96.1548 218.088L84.7477 211.543C84.3649 211.322 84.1711 210.941 84.1556 210.555L84.1532 210.536C84.1532 210.518 84.1496 205.13 84.1496 204.687C84.1496 204.64 84.1805 204.604 84.2245 204.591Z" fill="black"/>
<path d="M97.2535 209.887L97.2583 217.926C96.9634 217.875 96.6804 217.774 96.4225 217.625L85.0141 211.078C84.7359 210.916 84.6955 210.644 84.6908 210.532L84.686 205.169L95.9826 206.182L97.2535 209.887ZM97.6981 219.033C97.735 219.033 97.7718 219.033 97.8099 219.032L98.3282 219.016L98.2961 209.624L96.6638 204.868L96.2275 205.129L84.1784 204.05L84.0868 204.075C83.8086 204.149 83.6148 204.4 83.6148 204.686L83.6243 210.622C83.6457 211.176 83.9679 211.709 84.4803 212.005L95.8887 218.553C96.4332 218.868 97.0573 219.033 97.6981 219.033Z" fill="black"/>
<path d="M109.361 206.323C109.361 206.323 109.193 205.871 108.985 205.29L110.957 204.74C111.024 204.721 111.088 204.768 111.088 204.837C111.087 205.381 111.085 210.516 111.079 210.576L111.076 210.595C111.039 210.953 110.852 211.297 110.497 211.504L109.364 212.162L109.361 209.063V206.323Z" fill="black"/>
<path d="M110.553 205.408L110.551 206.354C110.55 208.01 110.549 210.411 110.544 210.556C110.531 210.666 110.472 210.899 110.229 211.04L109.898 211.233L109.863 206.136C109.863 206.136 109.79 205.943 109.684 205.65L110.553 205.408ZM108.831 213.093L110.767 211.965C111.243 211.689 111.55 211.21 111.609 210.651C111.616 210.58 111.617 210.56 111.622 206.355L111.625 204.838C111.626 204.644 111.533 204.453 111.376 204.333C111.218 204.211 111.009 204.17 110.814 204.224L108.289 204.927L108.481 205.468C108.635 205.898 108.766 206.257 108.825 206.418L108.831 213.093Z" fill="black"/>
<path d="M99.1984 212.269L110.494 205.719C111.289 205.256 111.287 204.108 110.491 203.648L99.0319 197.072C98.1046 196.537 96.9621 196.538 96.0372 197.076L84.7418 203.627C83.9464 204.09 83.9476 205.238 84.7441 205.698L96.2024 212.274C97.1297 212.809 98.2723 212.808 99.1984 212.269Z" fill="white"/>
<path d="M97.5388 197.208C97.9621 197.208 98.3853 197.317 98.7646 197.535L110.225 204.111C110.521 204.283 110.553 204.569 110.553 204.683C110.553 204.797 110.522 205.083 110.225 205.255L98.9298 211.807C98.1713 212.247 97.2309 212.249 96.47 211.81L85.0106 205.235C84.7146 205.064 84.6813 204.777 84.6813 204.663C84.6813 204.549 84.7134 204.264 85.0106 204.089L96.306 197.539C96.6864 197.318 97.112 197.208 97.5388 197.208ZM97.697 213.207C98.3092 213.207 98.9215 213.049 99.4671 212.732L110.761 206.181C111.302 205.869 111.625 205.307 111.625 204.683C111.623 204.057 111.3 203.498 110.759 203.185L99.2983 196.608C98.2093 195.98 96.8552 195.981 95.7686 196.613L84.4732 203.164C83.9323 203.478 83.6101 204.04 83.6113 204.664C83.6125 205.29 83.9346 205.85 84.4768 206.161L95.9363 212.738C96.4796 213.052 97.0883 213.207 97.697 213.207Z" fill="black"/>
<path d="M95.9505 218.446L96.3606 217.731L93.4099 216.035L92.9997 216.749L95.9505 218.446Z" fill="#C3E4FF"/>
<path d="M76.0916 244.641C76.0916 244.641 77.019 242.411 80.6711 241.952L80.6735 241.954C80.9482 241.873 81.2739 241.921 81.627 242.124L96.5092 250.716C97.4769 251.275 98.2616 252.774 98.2616 254.064V255.14V257.211V265.483C98.2616 265.838 98.1605 266.101 98 266.257C98 266.257 96.7565 267.956 93.8663 268.756C92.4112 269.158 89.0812 264.566 86.1328 259.907L80.9446 256.911C80.3537 256.57 79.8746 255.656 79.8746 254.869V249.589L77.1402 246.02L76.0916 244.641Z" fill="#C3E4FF"/>
<path d="M80.9399 242.452C81.0885 242.452 81.2442 242.521 81.3583 242.587L96.2417 251.18C97.0466 251.644 97.7254 252.965 97.7254 254.064V265.483C97.7254 265.7 97.6731 265.83 97.6256 265.874L97.5685 265.942C97.5578 265.955 96.3785 267.505 93.7238 268.24C93.5823 268.272 92.1295 268.383 86.5834 259.621L86.5145 259.509L81.2121 256.448C80.7841 256.202 80.4108 255.463 80.4108 254.867V249.408L76.7289 244.594C77.0701 244.067 78.0842 242.89 80.481 242.519L80.5166 242.555L80.8233 242.468C80.8614 242.457 80.8994 242.452 80.9399 242.452ZM93.6702 269.318C93.7939 269.318 93.9056 269.3 94.0091 269.272C96.8481 268.486 98.1974 266.875 98.4055 266.609C98.591 266.414 98.7966 266.065 98.7966 265.483V254.064C98.7966 252.58 97.9085 250.907 96.7767 250.254L81.8945 241.66C81.3465 241.344 80.8923 241.35 80.5903 241.422C76.6873 241.917 75.6399 244.333 75.5971 244.436L75.4794 244.721L79.3396 249.772V254.867C79.3396 255.856 79.9151 256.935 80.6771 257.375L85.75 260.304C90.5839 267.925 92.5765 269.318 93.6702 269.318Z" fill="black"/>
<path d="M93.209 254.421C91.0536 254.866 83.1666 251.055 83.1666 251.055L79.8747 249.754V249.555L77.1403 245.987L76.0917 244.608C76.0917 244.608 76.8704 242.396 80.5226 241.938L80.6736 241.919C80.9482 241.84 81.274 241.886 81.6271 242.09L96.5093 250.683C97.0359 250.986 97.502 251.571 97.823 252.246C97.7933 252.278 95.3478 253.977 93.209 254.421Z" fill="white"/>
<path d="M93.1007 253.896C91.667 254.187 86.3848 252.016 83.3996 250.574L80.4108 249.374L76.717 244.546C77.0273 244.019 78.0117 242.793 80.5879 242.469L80.8222 242.433C81.0041 242.383 81.2145 242.47 81.3583 242.553L96.2417 251.145C96.5556 251.327 96.8647 251.656 97.1227 252.075C96.3416 252.577 94.5928 253.587 93.1007 253.896ZM92.8321 254.988C93.0116 254.988 93.1744 254.975 93.3171 254.945C95.501 254.492 98.0738 252.765 98.2164 252.609L98.4613 252.344L98.3068 252.017C97.9204 251.204 97.3771 250.565 96.7767 250.219L81.8945 241.627C81.3357 241.304 80.8721 241.317 80.5701 241.393L80.4571 241.406C76.5208 241.901 75.6232 244.327 75.5864 244.429L75.4912 244.702L79.3396 249.754V250.119L82.9693 251.553C83.7075 251.911 90.1559 254.988 92.8321 254.988Z" fill="black"/>
<path d="M77.5362 244.459L92.4196 253.052C93.3861 253.611 94.1708 255.109 94.1708 256.399V257.475V259.546V267.819C94.1708 268.606 93.6917 268.969 93.102 268.628L76.8537 259.247C76.2641 258.906 75.785 257.991 75.785 257.204V248.931V246.859V245.783C75.785 244.494 76.5696 243.9 77.5362 244.459Z" fill="black"/>
<path d="M77.2686 244.923L92.152 253.515C92.9557 253.979 93.6357 255.3 93.6357 256.399V267.819C93.6357 268.08 93.5608 268.205 93.5335 268.22C93.5228 268.22 93.4681 268.22 93.3694 268.163L77.1224 258.784C76.6944 258.537 76.3199 257.799 76.3199 257.204V245.783C76.3199 245.316 76.4495 244.951 76.6575 244.83C76.8537 244.718 77.1259 244.839 77.2686 244.923ZM93.5287 269.29C93.7201 269.29 93.9032 269.242 94.0696 269.147C94.4738 268.914 94.7057 268.429 94.7057 267.819V256.399C94.7057 254.916 93.8188 253.242 92.687 252.588L77.8048 243.997C77.2091 243.652 76.6112 243.621 76.1225 243.903C75.5673 244.224 75.2487 244.91 75.2487 245.783V257.204C75.2487 258.176 75.8372 259.278 76.5862 259.71L92.8332 269.09C93.0639 269.223 93.3017 269.29 93.5287 269.29Z" fill="black"/>
<path d="M92.5539 261.029L93.0889 260.103L77.4018 251.047L76.8668 251.973L92.5539 261.029Z" fill="#C3E4FF"/>
<path d="M83.7943 257.949L85.7083 259.053C85.9258 259.18 86.1018 259.046 86.1018 258.758V254.548C86.1018 254.259 85.9258 253.924 85.7083 253.799L83.7943 252.693C83.5779 252.568 83.4019 252.701 83.4019 252.99V257.199C83.4019 257.488 83.5779 257.824 83.7943 257.949Z" fill="black"/>
<path d="M83.9382 253.395L85.4408 254.261C85.4824 254.291 85.5657 254.434 85.5657 254.548V258.353L84.0642 257.486C84.0202 257.453 83.9382 257.313 83.9382 257.199V253.395ZM85.8653 259.637C85.9937 259.637 86.1185 259.604 86.2339 259.539C86.4895 259.39 86.6368 259.106 86.6368 258.758V254.548C86.6368 254.065 86.3586 253.555 85.9758 253.335L84.063 252.23C83.799 252.076 83.5101 252.069 83.27 252.209C83.0132 252.358 82.867 252.642 82.867 252.99V257.199C82.867 257.683 83.1452 258.193 83.5292 258.412L85.4408 259.517C85.5799 259.597 85.7238 259.637 85.8653 259.637Z" fill="#C3E4FF"/>
<path d="M80.5855 244.221L82.238 245.175L83.2391 244.226C83.5113 243.968 83.9191 243.92 84.2425 244.106L88.1194 246.336C88.5557 246.588 88.8957 246.977 89.0871 247.443L90.0133 249.696L91.4244 250.484C91.6253 250.597 91.8714 250.59 92.0652 250.468L93.3349 249.664C93.4443 249.594 93.4407 249.433 93.3278 249.37L91.8405 248.539L90.9156 246.285C90.7242 245.82 90.383 245.43 89.9467 245.179L85.9675 242.889C85.6953 242.733 85.3588 242.74 85.0925 242.908L83.6968 243.792L82.496 243.11C82.2939 242.994 82.0467 243.001 81.8505 243.124L80.5796 243.929C80.4714 243.997 80.4738 244.157 80.5855 244.221Z" fill="#C3E4FF"/>
<path d="M82.8051 243.9L82.1596 244.511L81.3749 244.059L82.1358 243.577C82.1655 243.559 82.2011 243.558 82.2309 243.575L82.8051 243.9ZM92.5324 249.538L91.7786 250.016C91.7489 250.032 91.7133 250.034 91.6836 250.017L90.4376 249.319L89.5828 247.24C89.3486 246.668 88.923 246.182 88.3856 245.873L84.7322 243.77L85.379 243.36C85.4776 243.298 85.6001 243.296 85.7 243.353L89.6791 245.644C90.0108 245.835 90.2736 246.134 90.4198 246.49L91.4172 248.915L92.5324 249.538ZM91.7299 251.099C91.9463 251.099 92.1615 251.039 92.3517 250.919L93.6214 250.115C93.8318 249.982 93.9567 249.746 93.9495 249.498C93.9424 249.247 93.8069 249.024 93.5857 248.902L92.2649 248.162L91.4101 246.082C91.1747 245.509 90.7491 245.024 90.2141 244.716L86.2338 242.426C85.7892 242.169 85.2423 242.181 84.8072 242.457L83.6825 243.168L82.7599 242.644C82.3866 242.43 81.9277 242.441 81.5628 242.674L80.293 243.477C80.0826 243.609 79.9602 243.838 79.9649 244.088C79.9697 244.338 80.1028 244.561 80.3192 244.686L82.3153 245.838L83.6076 244.613C83.7062 244.521 83.8572 244.502 83.9761 244.571L87.8518 246.8C88.1835 246.991 88.4475 247.292 88.5925 247.646L89.59 250.073L91.1628 250.952C91.3388 251.05 91.5362 251.099 91.7299 251.099Z" fill="black"/>
<path d="M90.2998 250.148L92.1271 248.991L91.5552 248.088L89.7268 249.244L90.2998 250.148Z" fill="black"/>
<path d="M89.0407 247.148L90.8668 245.991L90.295 245.088L88.4677 246.245L89.0407 247.148Z" fill="black"/>
<path d="M98.9487 208.546L91.5956 212.781L84.2829 208.654L91.5647 204.362L98.9487 208.546Z" fill="white"/>
<path d="M97.8693 208.549L91.5933 212.165L85.3541 208.643L91.5707 204.98L97.8693 208.549ZM91.5981 213.396L100.028 208.542L91.5589 203.744L83.2118 208.663L91.5981 213.396Z" fill="black"/>
<path d="M205.632 170.587C205.632 170.569 205.629 145.407 205.629 144.963C205.629 144.917 205.66 144.88 205.704 144.868L217.826 145.955C217.835 145.952 217.842 145.949 217.85 145.944L218.961 139.258C218.993 139.239 219.032 139.239 219.064 139.257L230.225 145.66C230.249 145.674 230.277 145.678 230.304 145.67L232.436 145.076C232.503 145.058 232.567 145.105 232.567 145.172C232.566 145.718 232.564 170.627 232.558 170.688L232.555 170.706C232.518 171.063 232.332 171.407 231.976 171.614L220.732 178.135C219.775 178.691 218.593 178.694 217.634 178.138L206.227 171.594C205.844 171.373 205.65 170.992 205.635 170.606L205.632 170.587Z" fill="#C3E4FF"/>
<path d="M232.032 145.744C232.031 146.818 232.031 149.275 232.03 152.249C232.029 159.492 232.026 170.439 232.023 170.675C232.01 170.777 231.951 171.009 231.706 171.152L220.463 177.671C219.676 178.13 218.694 178.133 217.901 177.675L206.493 171.129C206.215 170.968 206.174 170.694 206.17 170.584H206.167L206.165 145.446L217.874 146.496L218.128 146.401L218.338 146.273L219.372 140.051L230.151 146.235L230.445 146.187L232.032 145.744ZM219.179 179.088C219.809 179.088 220.44 178.924 221.002 178.597L232.245 172.078C232.723 171.799 233.03 171.319 233.088 170.76C233.095 170.691 233.096 170.672 233.101 152.249C233.101 148.363 233.102 145.36 233.103 145.175C233.103 144.973 233.012 144.788 232.853 144.667C232.694 144.546 232.484 144.508 232.294 144.56L230.335 145.106L219.33 138.793C219.131 138.679 218.883 138.68 218.685 138.799L218.473 138.926L217.401 145.379L205.652 144.326L205.559 144.352C205.28 144.431 205.094 144.677 205.094 144.963L205.103 170.671C205.125 171.226 205.446 171.76 205.958 172.057L217.368 178.603C217.926 178.927 218.553 179.088 219.179 179.088Z" fill="black"/>
<path d="M205.704 144.872L217.826 145.958C217.835 145.956 217.842 145.952 217.85 145.949L219.269 150.079L219.272 178.552C218.707 178.569 218.139 178.436 217.634 178.143L206.227 171.599C205.844 171.377 205.65 170.997 205.635 170.611L205.632 170.59C205.632 170.574 205.629 145.411 205.629 144.967C205.629 144.922 205.66 144.885 205.704 144.872Z" fill="black"/>
<path d="M218.732 150.168L218.737 177.98C218.442 177.93 218.16 177.829 217.902 177.679L206.493 171.134C206.215 170.973 206.174 170.698 206.17 170.588L206.165 145.451L217.46 146.463L218.732 150.168ZM219.177 179.089C219.214 179.089 219.252 179.088 219.289 179.087L219.808 179.072L219.775 149.905L218.139 145.144L217.704 145.41L205.652 144.331L205.559 144.357C205.28 144.435 205.094 144.68 205.094 144.968L205.103 170.676C205.125 171.231 205.446 171.765 205.958 172.061L217.367 178.608C217.914 178.923 218.539 179.089 219.177 179.089Z" fill="black"/>
<path d="M230.84 146.604C230.84 146.604 230.672 146.152 230.464 145.571L232.436 145.021C232.503 145.002 232.567 145.049 232.567 145.118C232.566 145.662 232.564 170.571 232.558 170.632L232.555 170.65C232.518 171.008 232.332 171.352 231.976 171.559L230.843 172.218L230.84 149.344V146.604Z" fill="black"/>
<path d="M232.032 145.69C232.031 146.762 232.031 149.219 232.03 152.193C232.029 159.436 232.026 170.385 232.023 170.62C232.01 170.721 231.951 170.954 231.706 171.097L231.377 171.288L231.375 146.508L231.341 146.418C231.341 146.417 231.27 146.226 231.163 145.931L232.032 145.69ZM230.308 173.148L232.245 172.022C232.723 171.744 233.03 171.263 233.088 170.706C233.095 170.636 233.096 170.616 233.101 152.194C233.101 148.309 233.102 145.304 233.103 145.119C233.103 144.917 233.011 144.731 232.85 144.61C232.692 144.491 232.484 144.451 232.291 144.505L229.766 145.209L229.96 145.751C230.113 146.181 230.245 146.538 230.304 146.699L230.308 173.148Z" fill="black"/>
<path d="M220.677 152.55L231.973 146C232.768 145.537 232.766 144.389 231.97 143.929L220.511 137.353C219.585 136.818 218.441 136.819 217.516 137.357L206.221 143.909C205.425 144.371 205.427 145.52 206.223 145.98L217.681 152.555C218.609 153.09 219.751 153.089 220.677 152.55Z" fill="white"/>
<path d="M219.018 137.489C219.441 137.489 219.865 137.598 220.243 137.817L231.704 144.394C232 144.565 232.032 144.849 232.032 144.964C232.032 145.079 232.001 145.364 231.703 145.537L220.409 152.088C219.65 152.528 218.71 152.529 217.949 152.092L206.489 145.515C206.193 145.344 206.16 145.058 206.16 144.944C206.16 144.829 206.192 144.544 206.489 144.371L217.785 137.82C218.165 137.599 218.591 137.489 219.018 137.489ZM219.176 153.49C219.788 153.49 220.399 153.33 220.946 153.014L232.241 146.464C232.782 146.149 233.103 145.587 233.103 144.962C233.102 144.338 232.779 143.778 232.238 143.465L220.777 136.888C219.688 136.261 218.334 136.263 217.247 136.894L205.952 143.445C205.412 143.76 205.089 144.32 205.09 144.945C205.091 145.57 205.415 146.131 205.956 146.443L217.415 153.019C217.958 153.333 218.567 153.49 219.176 153.49Z" fill="black"/>
<path d="M205.214 157.503H206.036V150.846H205.214V157.503Z" fill="#C3E4FF"/>
<path d="M229.915 165.871L236.265 162.279C236.525 162.129 236.737 161.725 236.737 161.378V149.278C236.737 148.929 236.525 148.77 236.265 148.921L229.915 152.511C229.654 152.661 229.443 153.065 229.443 153.412V165.514C229.443 165.861 229.654 166.02 229.915 165.871Z" fill="white"/>
<path d="M236.199 149.572L236.202 161.378C236.202 161.563 236.067 161.776 235.997 161.815L229.981 165.218L229.979 153.412C229.979 153.228 230.113 153.015 230.184 152.975L236.199 149.572ZM229.652 165.405L229.916 165.871L229.647 165.407C229.65 165.406 229.651 165.406 229.652 165.405ZM229.727 166.463C229.878 166.463 230.033 166.42 230.18 166.335L236.529 162.745C236.961 162.495 237.273 161.921 237.273 161.378V149.278C237.273 148.898 237.115 148.59 236.841 148.432C236.587 148.286 236.279 148.294 235.997 148.457L229.652 152.045C229.219 152.295 228.908 152.869 228.908 153.412V165.514C228.908 165.892 229.066 166.2 229.339 166.359C229.459 166.428 229.591 166.463 229.727 166.463Z" fill="black"/>
<path d="M232.024 155.113C232.024 155.523 232.313 155.689 232.667 155.483C233.022 155.279 233.311 154.78 233.311 154.37C233.311 153.959 233.022 153.793 232.667 153.997C232.313 154.203 232.024 154.702 232.024 155.113Z" fill="black"/>
<path d="M232.024 139.994L224.672 144.229L217.358 140.102L224.64 135.81L232.024 139.994Z" fill="white"/>
<path d="M230.944 139.999L224.67 143.613L218.429 140.092L224.646 136.428L230.944 139.999ZM224.674 144.844L233.103 139.99L224.635 135.193L216.287 140.113L224.674 144.844Z" fill="black"/>
<path d="M227.943 143.849L221.995 147.276L218.511 145.258L224.402 141.787L227.943 143.849Z" fill="white"/>
<path d="M226.875 143.847L221.996 146.657L219.572 145.253L224.403 142.406L226.875 143.847ZM221.995 147.893L229.01 143.852L224.4 141.166L217.451 145.262L221.995 147.893Z" fill="black"/>
</svg>
